<svg width="61" height="60" viewBox="0 0 61 60" fill="none" xmlns="http://www.w3.org/2000/svg">
<g clip-path="url(#clip0_1355_58730)">
<path d="M16.3563 25.4582C16.3563 26.3226 15.0747 27.0223 15.0201 27.0511C15.0058 27.0589 14.9897 27.0629 14.9733 27.0629C14.957 27.0629 14.9409 27.0589 14.9265 27.0511C14.872 27.0223 13.5903 26.3226 13.5903 25.4582C13.5906 25.2552 13.6713 25.0606 13.8148 24.9171C13.9583 24.7736 14.1529 24.6929 14.3559 24.6926C14.6109 24.6926 14.8342 24.8023 14.9733 24.9876C15.1125 24.8023 15.3358 24.6926 15.5908 24.6926C15.7937 24.6929 15.9883 24.7736 16.1319 24.9171C16.2754 25.0606 16.3561 25.2552 16.3563 25.4582Z" fill="#E89900"/>
</g>
<g clip-path="url(#clip1_1355_58730)">
<path d="M47.5961 25.9541C47.5961 26.8184 46.3145 27.5181 46.2599 27.547C46.2455 27.5547 46.2294 27.5588 46.2131 27.5588C46.1967 27.5588 46.1807 27.5547 46.1663 27.547C46.1117 27.5181 44.8301 26.8184 44.8301 25.9541C44.8303 25.7511 44.911 25.5565 45.0546 25.413C45.1981 25.2694 45.3927 25.1887 45.5957 25.1885C45.8507 25.1885 46.0739 25.2981 46.2131 25.4835C46.3522 25.2981 46.5755 25.1885 46.8305 25.1885C47.0335 25.1887 47.2281 25.2694 47.3716 25.413C47.5151 25.5565 47.5959 25.7511 47.5961 25.9541Z" fill="#E89900"/>
</g>
<g clip-path="url(#clip2_1355_58730)">
<path d="M23.2982 17.0285C23.2982 17.8929 22.0166 18.5926 21.962 18.6215C21.9476 18.6292 21.9316 18.6332 21.9152 18.6332C21.8989 18.6332 21.8828 18.6292 21.8684 18.6215C21.8139 18.5926 20.5322 17.8929 20.5322 17.0285C20.5325 16.8256 20.6132 16.631 20.7567 16.4874C20.9002 16.3439 21.0948 16.2632 21.2978 16.2629C21.5528 16.2629 21.7761 16.3726 21.9152 16.5579C22.0544 16.3726 22.2777 16.2629 22.5326 16.2629C22.7356 16.2632 22.9302 16.3439 23.0738 16.4874C23.2173 16.631 23.298 16.8256 23.2982 17.0285Z" fill="#E89900"/>
</g>
<g clip-path="url(#clip3_1355_58730)">
<path d="M18.8358 20.4996C18.8358 21.364 17.5542 22.0636 17.4996 22.0925C17.4852 22.1003 17.4692 22.1043 17.4528 22.1043C17.4365 22.1043 17.4204 22.1003 17.406 22.0925C17.3515 22.0636 16.0698 21.364 16.0698 20.4996C16.0701 20.2966 16.1508 20.102 16.2943 19.9585C16.4378 19.815 16.6324 19.7342 16.8354 19.734C17.0904 19.734 17.3137 19.8437 17.4528 20.029C17.592 19.8437 17.8153 19.734 18.0702 19.734C18.2732 19.7342 18.4678 19.815 18.6113 19.9585C18.7549 20.102 18.8356 20.2966 18.8358 20.4996Z" fill="#E89900"/>
</g>
<g clip-path="url(#clip4_1355_58730)">
<path d="M40.6537 17.0285C40.6537 17.8929 39.3721 18.5926 39.3175 18.6215C39.3031 18.6292 39.287 18.6332 39.2707 18.6332C39.2544 18.6332 39.2383 18.6292 39.2239 18.6215C39.1693 18.5926 37.8877 17.8929 37.8877 17.0285C37.8879 16.8256 37.9687 16.631 38.1122 16.4874C38.2557 16.3439 38.4503 16.2632 38.6533 16.2629C38.9083 16.2629 39.1315 16.3726 39.2707 16.5579C39.4099 16.3726 39.6331 16.2629 39.8881 16.2629C40.0911 16.2632 40.2857 16.3439 40.4292 16.4874C40.5727 16.631 40.6535 16.8256 40.6537 17.0285Z" fill="#E89900"/>
</g>
<g clip-path="url(#clip5_1355_58730)">
<path d="M45.6127 20.4996C45.6127 21.364 44.3311 22.0636 44.2765 22.0925C44.2621 22.1003 44.246 22.1043 44.2297 22.1043C44.2134 22.1043 44.1973 22.1003 44.1829 22.0925C44.1283 22.0636 42.8467 21.364 42.8467 20.4996C42.8469 20.2966 42.9276 20.102 43.0712 19.9585C43.2147 19.815 43.4093 19.7342 43.6123 19.734C43.8673 19.734 44.0905 19.8437 44.2297 20.029C44.3689 19.8437 44.5921 19.734 44.8471 19.734C45.0501 19.7342 45.2447 19.815 45.3882 19.9585C45.5317 20.102 45.6125 20.2966 45.6127 20.4996Z" fill="#E89900"/>
</g>
<g clip-path="url(#clip6_1355_58730)">
<path d="M41.5641 26.6412C41.5641 33.5563 31.3111 39.1535 30.8745 39.3846C30.7594 39.4465 30.6308 39.4789 30.5001 39.4789C30.3694 39.4789 30.2408 39.4465 30.1257 39.3846C29.6891 39.1535 19.436 33.5563 19.436 26.6412C19.4379 25.0174 20.0837 23.4606 21.232 22.3124C22.3802 21.1642 23.937 20.5183 25.5608 20.5165C27.6007 20.5165 29.3868 21.3937 30.5001 22.8765C31.6134 21.3937 33.3995 20.5165 35.4394 20.5165C37.0632 20.5183 38.62 21.1642 39.7682 22.3124C40.9164 23.4606 41.5623 25.0174 41.5641 26.6412Z" fill="#E89900"/>
</g>
<defs>
<clipPath id="clip0_1355_58730">
<rect width="3.16116" height="3.16116" fill="white" transform="translate(13.3926 24.2975)"/>
</clipPath>
<clipPath id="clip1_1355_58730">
<rect width="3.16116" height="3.16116" fill="white" transform="translate(44.6323 24.7933)"/>
</clipPath>
<clipPath id="clip2_1355_58730">
<rect width="3.16116" height="3.16116" fill="white" transform="translate(20.3345 15.8678)"/>
</clipPath>
<clipPath id="clip3_1355_58730">
<rect width="3.16116" height="3.16116" fill="white" transform="translate(15.8721 19.3389)"/>
</clipPath>
<clipPath id="clip4_1355_58730">
<rect width="3.16116" height="3.16116" fill="white" transform="translate(37.6899 15.8678)"/>
</clipPath>
<clipPath id="clip5_1355_58730">
<rect width="3.16116" height="3.16116" fill="white" transform="translate(42.6489 19.3389)"/>
</clipPath>
<clipPath id="clip6_1355_58730">
<rect width="25.2893" height="25.2893" fill="white" transform="translate(17.8555 17.3553)"/>
</clipPath>
</defs>
</svg>
