<svg width="27" height="26" viewBox="0 0 27 26" fill="none" xmlns="http://www.w3.org/2000/svg">
<g id="Group">
<path id="Shape" fill-rule="evenodd" clip-rule="evenodd" d="M26.3403 13.2956C26.3403 12.3737 26.2576 11.4874 26.104 10.6365H13.8604V15.6651H20.8567C20.5553 17.2901 19.6394 18.6669 18.2626 19.5887V22.8506H22.464C24.9222 20.5874 26.3403 17.2547 26.3403 13.2956Z" fill="#4285F4"/>
<path id="Shape_2" fill-rule="evenodd" clip-rule="evenodd" d="M13.8604 26C17.3704 26 20.3132 24.8359 22.4641 22.8504L18.2627 19.5886C17.0986 20.3686 15.6095 20.8295 13.8604 20.8295C10.4745 20.8295 7.60862 18.5427 6.58634 15.47H2.24316V18.8382C4.38225 23.0868 8.77862 26 13.8604 26Z" fill="#34A853"/>
<path id="Shape_3" fill-rule="evenodd" clip-rule="evenodd" d="M6.58626 15.47C6.32626 14.69 6.17853 13.8569 6.17853 13C6.17853 12.1432 6.32626 11.31 6.58626 10.53V7.16187H2.24308C1.36262 8.91686 0.860352 10.9023 0.860352 13C0.860352 15.0978 1.36262 17.0832 2.24308 18.8382L6.58626 15.47Z" fill="#FBBC05"/>
<path id="Shape_4" fill-rule="evenodd" clip-rule="evenodd" d="M13.8604 5.17045C15.7691 5.17045 17.4827 5.82636 18.83 7.11454L22.5586 3.38591C20.3073 1.28818 17.3645 0 13.8604 0C8.77862 0 4.38225 2.91318 2.24316 7.16182L6.58634 10.53C7.60862 7.45727 10.4745 5.17045 13.8604 5.17045Z" fill="#EA4335"/>
</g>
</svg>
