<svg width="34" height="34" viewBox="0 0 34 34" fill="none" xmlns="http://www.w3.org/2000/svg">
<g id="Ykonka-Oborudovanyye 1">
<g id="dishwasher">
<g id="Group">
<path id="Vector" d="M5.86367 5.4091C6.29044 5.4091 6.6364 5.06314 6.6364 4.63637C6.6364 4.20961 6.29044 3.86365 5.86367 3.86365C5.4369 3.86365 5.09094 4.20961 5.09094 4.63637C5.09094 5.06314 5.4369 5.4091 5.86367 5.4091Z" fill="#229C6B"/>
<path id="Vector_2" d="M8.95449 5.4091C9.38126 5.4091 9.72722 5.06314 9.72722 4.63637C9.72722 4.20961 9.38126 3.86365 8.95449 3.86365C8.52772 3.86365 8.18176 4.20961 8.18176 4.63637C8.18176 5.06314 8.52772 5.4091 8.95449 5.4091Z" fill="#229C6B"/>
<path id="Vector_3" d="M12.0454 5.4091C12.4722 5.4091 12.8182 5.06314 12.8182 4.63637C12.8182 4.20961 12.4722 3.86365 12.0454 3.86365C11.6187 3.86365 11.2727 4.20961 11.2727 4.63637C11.2727 5.06314 11.6187 5.4091 12.0454 5.4091Z" fill="#229C6B"/>
<path id="Vector_4" d="M27.5 5.4091C27.9268 5.4091 28.2727 5.06314 28.2727 4.63637C28.2727 4.20961 27.9268 3.86365 27.5 3.86365C27.0733 3.86365 26.7273 4.20961 26.7273 4.63637C26.7273 5.06314 27.0733 5.4091 27.5 5.4091Z" fill="#229C6B"/>
<path id="Vector_5" d="M29.0455 0H4.31818C3.00455 0 2 1.00455 2 2.31818V29.3636C2 30.6773 3.00455 31.6818 4.31818 31.6818V33.2273C4.31818 33.4591 4.39545 33.6136 4.55 33.7682C4.70455 33.9227 4.85909 34 5.09091 34H25.1818C25.6455 34 25.9545 33.6909 25.9545 33.2273C25.9545 32.7636 25.6455 32.4545 25.1818 32.4545H5.86364V30.9091C5.86364 30.6773 5.78636 30.5227 5.63182 30.3682C5.47727 30.2136 5.32273 30.1364 5.09091 30.1364H4.31818C3.85455 30.1364 3.54545 29.8273 3.54545 29.3636V2.31818C3.54545 1.85455 3.85455 1.54545 4.31818 1.54545H29.0455C29.5091 1.54545 29.8182 1.85455 29.8182 2.31818V29.3636C29.8182 29.8273 29.5091 30.1364 29.0455 30.1364H8.18182C7.71818 30.1364 7.40909 30.4455 7.40909 30.9091C7.40909 31.3727 7.71818 31.6818 8.18182 31.6818H27.5V33.2273C27.5 33.6909 27.8091 34 28.2727 34C28.7364 34 29.0455 33.6909 29.0455 33.2273V31.6818C30.3591 31.6818 31.3636 30.6773 31.3636 29.3636V2.31818C31.3636 1.00455 30.3591 0 29.0455 0Z" fill="#229C6B"/>
<path id="Vector_6" d="M5.09094 27.8182C5.09094 28.2818 5.40003 28.5909 5.86367 28.5909H27.5C27.9637 28.5909 28.2728 28.2818 28.2728 27.8182V8.49999C28.2728 8.03636 27.9637 7.72726 27.5 7.72726H5.86367C5.40003 7.72726 5.09094 8.03636 5.09094 8.49999V27.8182ZM6.6364 9.27272H26.7273V27.0454H6.6364V9.27272Z" fill="#229C6B"/>
<path id="Vector_7" d="M15.1363 17.7727C12.9727 17.7727 11.2727 19.4727 11.2727 21.6364C11.2727 23.8 12.9727 25.5 15.1363 25.5C17.3 25.5 19 23.8 19 21.6364C19 19.4727 17.3 17.7727 15.1363 17.7727ZM15.1363 23.9546C13.8227 23.9546 12.8182 22.95 12.8182 21.6364C12.8182 20.3227 13.8227 19.3182 15.1363 19.3182C16.45 19.3182 17.4545 20.3227 17.4545 21.6364C17.4545 22.95 16.45 23.9546 15.1363 23.9546Z" fill="#229C6B"/>
<path id="Vector_8" d="M19.7727 17.7727C19.3091 17.7727 19 18.0818 19 18.5455C19 19.0091 19.3091 19.3182 19.7727 19.3182C21.0864 19.3182 22.0909 20.3227 22.0909 21.6364C22.0909 22.95 21.0864 23.9546 19.7727 23.9546C19.3091 23.9546 19 24.2636 19 24.7273C19 25.1909 19.3091 25.5 19.7727 25.5C21.9364 25.5 23.6364 23.8 23.6364 21.6364C23.6364 19.4727 21.9364 17.7727 19.7727 17.7727Z" fill="#229C6B"/>
<path id="Vector_9" d="M16.6818 15.4545C17.1454 15.4545 17.4545 15.1454 17.4545 14.6818V11.5909C17.4545 11.1273 17.1454 10.8182 16.6818 10.8182C16.2181 10.8182 15.9091 11.1273 15.9091 11.5909V14.6818C15.9091 15.1454 16.2181 15.4545 16.6818 15.4545Z" fill="#229C6B"/>
<path id="Vector_10" d="M20.6228 14.9909C20.7773 15.3 21.0091 15.4545 21.3182 15.4545C21.4728 15.4545 21.55 15.4545 21.6273 15.3773C22.0137 15.2227 22.1682 14.7591 21.9364 14.3727L20.3909 11.2818C20.2364 10.8954 19.7728 10.7409 19.3864 10.9727C19 11.1273 18.8455 11.5909 19.0773 11.9773L20.6228 14.9909Z" fill="#229C6B"/>
<path id="Vector_11" d="M11.7364 15.3773C11.8136 15.4546 11.8909 15.4546 12.0455 15.4546C12.3546 15.4546 12.5864 15.3 12.7409 14.9909L14.2864 11.9C14.4409 11.5136 14.2864 11.05 13.9773 10.8955C13.5909 10.7409 13.1273 10.8955 12.9727 11.2046L11.4273 14.2955C11.1955 14.6818 11.35 15.1455 11.7364 15.3773Z" fill="#229C6B"/>
</g>
</g>
</g>
</svg>
