<svg width="34" height="34" viewBox="0 0 34 34" fill="none" xmlns="http://www.w3.org/2000/svg">
<g id="Ykonka-Farfor 1" clip-path="url(#clip0_2013_4324)">
<g id="strawberry">
<path id="Vector" d="M17.3335 1.54545C25.8335 1.54545 32.788 8.5 32.788 17C32.788 25.5 25.8335 32.4545 17.3335 32.4545C8.8335 32.4545 1.87895 25.5 1.87895 17C1.87895 8.5 8.8335 1.54545 17.3335 1.54545ZM17.3335 0C7.90622 0 0.333496 7.57273 0.333496 17C0.333496 26.4273 7.90622 34 17.3335 34C26.7608 34 34.3335 26.4273 34.3335 17C34.3335 7.57273 26.7608 0 17.3335 0Z" fill="#229C6B"/>
<path id="Vector_2" d="M17.3334 7.72728C22.4334 7.72728 26.6062 11.9 26.6062 17C26.6062 22.1 22.4334 26.2727 17.3334 26.2727C12.2334 26.2727 8.06071 22.1 8.06071 17C8.06071 11.9 12.2334 7.72728 17.3334 7.72728ZM17.3334 6.18182C11.3834 6.18182 6.51526 11.05 6.51526 17C6.51526 22.95 11.3834 27.8182 17.3334 27.8182C23.2834 27.8182 28.1516 22.95 28.1516 17C28.1516 11.05 23.2834 6.18182 17.3334 6.18182Z" fill="#229C6B"/>
<path id="Vector_3" d="M16.7925 24.2636C17.2562 24.2636 17.5653 23.9545 17.5653 23.4909C17.5653 23.0273 17.2562 22.7182 16.7925 22.7182C14.2425 22.7182 12.1562 20.6318 12.1562 18.0818C12.1562 17.6182 11.8471 17.3091 11.3834 17.3091C10.9198 17.3091 10.6107 17.6182 10.6107 18.0818C10.6107 21.4045 13.3925 24.1864 16.7925 24.2636Z" fill="#229C6B"/>
</g>
<g id="wine">
<path id="Vector_4" d="M20.0909 23.1818C20.0909 22.7182 19.7818 22.4091 19.3181 22.4091C18.8545 22.4091 18.5454 22.7182 18.5454 23.1818C18.5454 23.6455 18.8545 23.9545 19.3181 23.9545C19.7818 23.9545 20.0909 23.6455 20.0909 23.1818Z" fill="#229C6B"/>
</g>
</g>
<defs>
<clipPath id="clip0_2013_4324">
<rect width="34" height="34" fill="white"/>
</clipPath>
</defs>
</svg>
