<svg width="34" height="34" viewBox="0 0 34 34" fill="none" xmlns="http://www.w3.org/2000/svg">
<g id="Ykonka-Servyrovka-y-furshet 1">
<g id="dish">
<g id="Group">
<path id="Vector" d="M16.2272 8.48218V9.40946C16.2272 9.87309 16.5363 10.1822 16.9999 10.1822C24.2636 10.1822 30.1363 16.0549 30.1363 23.3185C30.1363 23.7822 30.4454 24.0913 30.909 24.0913C31.3727 24.0913 31.6818 23.7822 31.6818 23.3185C31.6818 15.514 25.4999 9.02309 17.7727 8.63673V8.48218C18.6999 8.17309 19.3181 7.32309 19.3181 6.31855C19.3181 5.00491 18.3136 4.00037 16.9999 4.00037C15.6863 4.00037 14.6818 5.00491 14.6818 6.31855C14.6818 7.32309 15.2999 8.17309 16.2272 8.48218ZM16.9999 5.54582C17.4636 5.54582 17.7727 5.85491 17.7727 6.31855C17.7727 6.78218 17.4636 7.09128 16.9999 7.09128C16.5363 7.09128 16.2272 6.78218 16.2272 6.31855C16.2272 5.85491 16.5363 5.54582 16.9999 5.54582Z" fill="#229C6B"/>
<path id="Vector_2" d="M14.5273 11.9595C12.2864 12.4231 10.3545 13.5822 8.73182 15.2049C8.42273 15.514 8.42273 15.9776 8.73182 16.2867C8.88636 16.4413 9.04091 16.5186 9.27273 16.5186C9.50455 16.5186 9.65909 16.4413 9.81364 16.2867C11.2045 14.8958 12.9045 13.8913 14.8364 13.5049C15.2227 13.4276 15.5318 12.964 15.4545 12.5776C15.3773 12.1913 14.9136 11.8822 14.5273 11.9595Z" fill="#229C6B"/>
<path id="Vector_3" d="M33.6909 27.1822C33.2273 26.2549 32.2227 25.6367 31.2182 25.6367H6.18182C5.71818 25.6367 5.40909 25.9458 5.40909 26.4095C5.40909 26.8731 5.71818 27.1822 6.18182 27.1822H31.2182C31.6818 27.1822 32.1455 27.414 32.3 27.8776C32.3773 28.0322 32.4545 28.264 32.4545 28.4185V28.7276H1.54545V28.4185C1.54545 28.1867 1.62273 28.0322 1.7 27.8776C1.85455 27.414 2.31818 27.1822 2.78182 27.1822H3.09091C3.55455 27.1822 3.86364 26.8731 3.86364 26.4095V23.3185C3.86364 17.1367 8.03636 11.8822 14.0636 10.4913C14.45 10.414 14.7591 9.95036 14.6818 9.564C14.6045 9.17764 14.1409 8.86855 13.7545 8.94582C7.03182 10.4913 2.31818 16.4413 2.31818 23.3185V25.714C1.46818 25.7913 0.695455 26.4095 0.309091 27.1822C0.0772727 27.5685 0 28.0322 0 28.4185V29.5004C0 29.964 0.309091 30.2731 0.772727 30.2731H33.2273C33.6909 30.2731 34 29.964 34 29.5004V28.4185C34 28.0322 33.9227 27.5685 33.6909 27.1822Z" fill="#229C6B"/>
</g>
</g>
</g>
</svg>
