<svg width="34" height="34" viewBox="0 0 34 34" fill="none" xmlns="http://www.w3.org/2000/svg">
<g id="Ykonka-Mebel-yz-nerzhstaly 1" clip-path="url(#clip0_2013_4144)">
<g id="microwave">
<path id="Vector" d="M31.4256 7.54475C31.812 7.54475 32.121 7.85384 32.121 8.24021V9.09021C32.121 9.47657 31.812 9.78566 31.4256 9.78566H1.90741C1.52105 9.86293 1.21196 9.55384 1.21196 9.16748V8.31748C1.21196 7.85384 1.52105 7.54475 1.90741 7.54475H31.4256ZM31.4256 5.9993H1.90741C0.671049 5.9993 -0.333496 7.00384 -0.333496 8.24021V9.09021C-0.333496 10.4038 0.671049 11.4084 1.90741 11.4084H31.3483C32.5847 11.4084 33.5892 10.4038 33.5892 9.16748V8.31748C33.6665 7.00384 32.662 5.9993 31.4256 5.9993Z" fill="#229C6B"/>
<g id="Group">
<path id="Vector_2" d="M5.84823 11.4084V26.8629H4.30278V11.4084H5.84823ZM6.62096 9.86295H3.53005C3.06642 9.86295 2.75732 10.2493 2.75732 10.6357V27.6357C2.75732 28.0993 3.14369 28.4084 3.53005 28.4084H6.62096C7.0846 28.4084 7.39369 28.022 7.39369 27.6357V10.6357C7.39369 10.2493 7.00732 9.86295 6.62096 9.86295Z" fill="#229C6B"/>
</g>
<g id="Group_2">
<path id="Vector_3" d="M23.621 12.1811V15.272H9.71196V12.1811H23.621ZM24.2392 10.6357H9.09378C8.63014 10.6357 8.1665 11.022 8.1665 11.5629V15.9675C8.1665 16.4311 8.55287 16.8947 9.09378 16.8947H24.3165C24.7801 16.8947 25.2438 16.5084 25.2438 15.9675V11.5629C25.1665 11.022 24.7801 10.6357 24.2392 10.6357Z" fill="#229C6B"/>
</g>
<g id="Group_3">
<path id="Vector_4" d="M29.0301 11.4084V26.8629H27.4847V11.4084H29.0301ZM29.8028 9.86295H26.7119C26.2483 9.86295 25.9392 10.2493 25.9392 10.6357V27.6357C25.9392 28.0993 26.3256 28.4084 26.7119 28.4084H29.8028C30.2665 28.4084 30.5756 28.022 30.5756 27.6357V10.6357C30.5756 10.2493 30.1892 9.86295 29.8028 9.86295Z" fill="#229C6B"/>
</g>
</g>
<g id="toaster">
<path id="Vector_5" d="M19.8484 17.5462C20.312 17.5462 20.6211 17.2371 20.6211 16.7734C20.6211 16.3098 20.312 16.0007 19.8484 16.0007C19.3848 16.0007 19.0757 16.3098 19.0757 16.7734C19.0757 17.2371 19.3848 17.5462 19.8484 17.5462Z" fill="#229C6B"/>
<path id="Vector_6" d="M14.4392 16.0007C13.9756 16.0007 13.6665 16.3098 13.6665 16.7734C13.6665 17.2371 13.9756 17.5462 14.4392 17.5462H17.5301C17.9938 17.5462 18.3029 17.2371 18.3029 16.7734C18.3029 16.3098 17.9938 16.0007 17.5301 16.0007H14.4392Z" fill="#229C6B"/>
</g>
</g>
<defs>
<clipPath id="clip0_2013_4144">
<rect width="34" height="34" fill="white"/>
</clipPath>
</defs>
</svg>
