<svg width="114" height="100" viewBox="0 0 114 100" fill="none" xmlns="http://www.w3.org/2000/svg">
<g id="Group 5">
<path id="Vector" d="M27.8643 33.0795L35.9742 68.4283H96.6188L104.729 33.0795H49.3544H27.8643Z" fill="#249C6B"/>
<path id="Vector_2" d="M101.642 74.708H30.9497C30.3632 74.708 29.8545 74.3023 29.7251 73.7309L18.7439 25.5006C17.6324 20.616 13.357 17.206 8.34804 17.206H1.73647C1.04316 17.206 0.480469 16.6433 0.480469 15.95C0.480469 15.2567 1.04316 14.694 1.73647 14.694H8.34804C14.5363 14.694 19.8191 18.9078 21.1931 24.9429L31.9507 72.1973H100.639L110.689 28.0565H49.3538C48.6605 28.0565 48.0978 27.4938 48.0978 26.8005C48.0978 26.1072 48.6605 25.5445 49.3538 25.5445H112.264C112.647 25.5445 113.008 25.7191 113.245 26.0168C113.484 26.3157 113.574 26.7063 113.488 27.0794L102.866 73.7309C102.736 74.3023 102.229 74.708 101.642 74.708Z" fill="#1A1A1C"/>
<path id="Vector_3" d="M24.8942 92.0332C19.4256 92.0332 14.9756 87.5845 14.9756 82.1159C14.9756 76.6473 19.4243 72.1973 24.8942 72.1973H101.563C102.257 72.1973 102.819 72.7587 102.819 73.4533C102.819 74.1478 102.257 74.7093 101.563 74.7093H24.8942C20.8109 74.7093 17.4876 78.0326 17.4876 82.1159C17.4876 86.1991 20.8109 89.5212 24.8942 89.5212C25.5875 89.5212 26.1502 90.0827 26.1502 90.7772C26.1502 91.4718 25.5875 92.0332 24.8942 92.0332Z" fill="#1A1A1C"/>
<path id="Vector_4" d="M92.701 99.9999C87.6168 99.9999 83.4795 95.8626 83.4795 90.7771C83.4795 85.6916 87.6168 81.5543 92.701 81.5543C97.7866 81.5543 101.924 85.6916 101.924 90.7771C101.924 95.8626 97.7866 99.9999 92.701 99.9999ZM92.701 84.0663C89.0021 84.0663 85.9915 87.0757 85.9915 90.7771C85.9915 94.4785 89.0009 97.4879 92.701 97.4879C96.4012 97.4879 99.4118 94.4785 99.4118 90.7771C99.4118 87.0757 96.4012 84.0663 92.701 84.0663Z" fill="#1A1A1C"/>
<path id="Vector_5" d="M43.1317 99.9999C38.0474 99.9999 33.9102 95.8626 33.9102 90.7771C33.9102 85.6916 38.0474 81.5543 43.1317 81.5543C48.2172 81.5543 52.3545 85.6916 52.3545 90.7771C52.3545 95.8626 48.2172 99.9999 43.1317 99.9999ZM43.1317 84.0663C39.4315 84.0663 36.4222 87.0757 36.4222 90.7771C36.4222 94.4785 39.4315 97.4879 43.1317 97.4879C46.8319 97.4879 49.8425 94.4785 49.8425 90.7771C49.8425 87.0757 46.8319 84.0663 43.1317 84.0663Z" fill="#1A1A1C"/>
<path id="Vector_6" d="M73.4351 92.0335H51.0997C50.4064 92.0335 49.8438 91.472 49.8438 90.7775C49.8438 90.0829 50.4064 89.5215 51.0997 89.5215H73.4351C74.1297 89.5215 74.6911 90.0829 74.6911 90.7775C74.6911 91.472 74.1297 92.0335 73.4351 92.0335Z" fill="#1A1A1C"/>
<path id="Vector_7" d="M101.563 28.0549H68.3419C67.6474 28.0549 67.0859 27.4922 67.0859 26.7989V9.44606C67.0859 8.75275 67.6474 8.19006 68.3419 8.19006H101.563C102.258 8.19006 102.819 8.75275 102.819 9.44606V26.7989C102.819 27.4935 102.258 28.0549 101.563 28.0549ZM69.5979 25.5429H100.307V10.7021H69.5979V25.5429Z" fill="#1A1A1C"/>
<path id="Vector_8" d="M35.4103 28.0552C34.717 28.0552 34.1543 27.4925 34.1543 26.7992V1.256C34.1543 0.562687 34.717 0 35.4103 0H78.9997C79.6942 0 80.2557 0.562687 80.2557 1.256V9.44635C80.2557 10.1397 79.6942 10.7024 78.9997 10.7024C78.3051 10.7024 77.7437 10.1397 77.7437 9.44635V2.51199H36.6663V26.7992C36.6663 27.4938 36.1036 28.0552 35.4103 28.0552Z" fill="#1A1A1C"/>
<path id="Vector_9" d="M96.5384 14.4702H73.3652V21.7751H96.5384V14.4702Z" fill="#249C6B"/>
</g>
</svg>
