<svg width="112" height="100" viewBox="0 0 112 100" fill="none" xmlns="http://www.w3.org/2000/svg">
<g id="Group 3">
<path id="Vector" d="M69.0049 59.4589H49.8741H42.9925C40.2413 59.4589 38.0107 61.6894 38.0107 64.4406V65.9154V87.0294H73.9891V65.9154V64.4406C73.9879 61.6894 71.7573 59.4589 69.0049 59.4589Z" fill="#249C6B"/>
<path id="Vector_2" d="M103.846 30.2913C103.846 34.8248 100.17 38.5007 95.637 38.5007C91.1035 38.5007 87.4276 34.8248 87.4276 30.2913L81.167 20.127H92.386L103.846 30.2913Z" fill="#249C6B"/>
<path id="Vector_3" d="M40.576 20.1278L34.3154 30.2922C34.3154 34.8256 37.9914 38.5016 42.5248 38.5016C47.0583 38.5016 50.7343 34.8256 50.7343 30.2922V20.1278H40.576Z" fill="#249C6B"/>
<path id="Vector_4" d="M71.421 20.1278L77.6815 30.2922C77.6815 34.8256 74.0055 38.5016 69.4721 38.5016C64.9387 38.5016 61.2627 34.8256 61.2627 30.2922V20.1278H71.421Z" fill="#249C6B"/>
<path id="Vector_5" d="M8.14941 30.2913C8.14941 34.8248 11.8254 38.5007 16.3588 38.5007C20.8923 38.5007 24.5682 34.8248 24.5682 30.2913L30.8288 20.127H19.6098L8.14941 30.2913Z" fill="#249C6B"/>
<g id="Group">
<path id="Vector_6" d="M12.9583 88.2542C12.2822 88.2542 11.7334 87.7067 11.7334 87.0293V44.1351C11.7334 43.4589 12.2822 42.9102 12.9583 42.9102C13.6345 42.9102 14.1832 43.4589 14.1832 44.1351V87.0293C14.1832 87.7067 13.6357 88.2542 12.9583 88.2542Z" fill="black"/>
<path id="Vector_7" d="M99.0403 88.2542C98.363 88.2542 97.8154 87.7067 97.8154 87.0293V44.1326C97.8154 43.4565 98.363 42.9077 99.0403 42.9077C99.7177 42.9077 100.265 43.4565 100.265 44.1326V87.0293C100.265 87.7067 99.7165 88.2542 99.0403 88.2542Z" fill="black"/>
<path id="Vector_8" d="M109.896 99.9997H31.8855C31.2094 99.9997 30.6606 99.4521 30.6606 98.7747C30.6606 98.0974 31.2094 97.5498 31.8855 97.5498H108.671V91.5453C108.671 89.7312 107.195 88.2539 105.38 88.2539H6.61913C4.8038 88.2539 3.32777 89.7312 3.32777 91.5453V97.5498H15.1397C15.8158 97.5498 16.3646 98.0974 16.3646 98.7747C16.3646 99.4521 15.8158 99.9997 15.1397 99.9997H2.10285C1.42669 99.9997 0.87793 99.4521 0.87793 98.7747V91.5453C0.87793 88.3801 3.45394 85.8041 6.61913 85.8041H105.381C108.546 85.8041 111.122 88.3801 111.122 91.5453V98.7747C111.121 99.4521 110.573 99.9997 109.896 99.9997Z" fill="black"/>
<path id="Vector_9" d="M69.4735 45.6172C61.3682 45.6172 54.7744 39.0235 54.7744 30.9182V14.236C54.7744 13.5599 55.3232 13.0111 55.9993 13.0111H72.6717C73.0968 13.0111 73.4912 13.2316 73.7154 13.5942L83.9912 30.2764C84.1088 30.4687 84.1725 30.6916 84.1725 30.9182C84.1725 39.0235 77.5787 45.6172 69.4735 45.6172ZM57.2243 15.4609V30.9182C57.2243 37.6724 62.7192 43.1674 69.4735 43.1674C76.115 43.1674 81.5377 37.8562 81.7178 31.2575L71.9882 15.4609H57.2243Z" fill="black"/>
<path id="Vector_10" d="M96.4219 45.6176C88.4342 45.6176 81.9152 39.215 81.7277 31.2726L71.6295 14.8795C71.398 14.501 71.387 14.0269 71.6038 13.6399C71.8206 13.2528 72.2297 13.0127 72.6731 13.0127H91.0874C91.3862 13.0127 91.6753 13.1229 91.8995 13.3214L110.708 30.0036C110.971 30.2338 111.121 30.5682 111.121 30.9186C111.121 39.0239 104.527 45.6176 96.4219 45.6176ZM74.8645 15.4613L83.9902 30.2755C84.109 30.469 84.1727 30.692 84.1727 30.9186C84.1727 37.6728 89.6677 43.1678 96.4219 43.1678C102.995 43.1678 108.376 37.9631 108.659 31.4588L90.6207 15.4613H74.8645Z" fill="black"/>
<path id="Vector_11" d="M42.5242 45.6172C34.4189 45.6172 27.8252 39.0235 27.8252 30.9182C27.8252 30.6916 27.8877 30.4687 28.0065 30.2764L38.2823 13.5942C38.5053 13.2328 38.8997 13.0111 39.326 13.0111H55.9984C56.6745 13.0111 57.2233 13.5599 57.2233 14.236V30.9182C57.2233 39.0235 50.6295 45.6172 42.5242 45.6172ZM30.2799 31.2575C30.46 37.8549 35.8839 43.1674 42.5242 43.1674C49.2784 43.1674 54.7734 37.6724 54.7734 30.9182V15.4609H40.0107L30.2799 31.2575Z" fill="black"/>
<path id="Vector_12" d="M15.577 45.6172C7.47167 45.6172 0.87793 39.0235 0.87793 30.9182C0.87793 30.5679 1.02859 30.2335 1.2895 30.002L20.0994 13.3198C20.3235 13.1201 20.6126 13.0111 20.9127 13.0111H39.3269C39.7704 13.0111 40.1795 13.2512 40.3963 13.6383C40.6131 14.0253 40.6021 14.5006 40.3706 14.8779L30.2723 31.271C30.0837 39.2146 23.5647 45.6172 15.577 45.6172ZM3.34002 31.4584C3.62297 37.9627 9.00405 43.1674 15.577 43.1674C22.3312 43.1674 27.8262 37.6724 27.8262 30.9182C27.8262 30.6916 27.8886 30.4687 28.0075 30.2764L37.1331 15.4622H21.377L3.34002 31.4584Z" fill="black"/>
<path id="Vector_13" d="M109.896 32.1431H2.10285C1.42669 32.1431 0.87793 31.5943 0.87793 30.9182C0.87793 30.242 1.42669 29.6932 2.10285 29.6932H109.896C110.573 29.6932 111.121 30.242 111.121 30.9182C111.121 31.5943 110.573 32.1431 109.896 32.1431Z" fill="black"/>
<path id="Vector_14" d="M91.285 15.4609H20.9134C20.2372 15.4609 19.6885 14.9122 19.6885 14.236V5.71303C19.6885 2.56253 22.251 0 25.4015 0H86.7969C89.9462 0 92.51 2.56253 92.51 5.71303V14.236C92.51 14.9122 91.9612 15.4609 91.285 15.4609ZM22.1383 13.0111H90.0601V5.71303C90.0601 3.91362 88.5963 2.44984 86.7969 2.44984H25.4015C23.6021 2.44984 22.1383 3.91362 22.1383 5.71303V13.0111Z" fill="black"/>
<path id="Vector_15" d="M80.1131 88.2543C79.4357 88.2543 78.8882 87.7068 78.8882 87.0294V58.316C78.8882 56.2447 77.2027 54.5592 75.1314 54.5592H57.2243V62.6951C57.2243 63.3725 56.6755 63.92 55.9993 63.92C55.3232 63.92 54.7744 63.3725 54.7744 62.6951V53.3343C54.7744 52.6569 55.3232 52.1094 55.9993 52.1094H75.1301C78.5526 52.1094 81.3368 54.8936 81.3368 58.316V87.0294C81.338 87.7068 80.7893 88.2543 80.1131 88.2543Z" fill="black"/>
<path id="Vector_16" d="M55.9993 88.2545C55.3232 88.2545 54.7744 87.707 54.7744 87.0296V72.8891C54.7744 72.2117 55.3232 71.6642 55.9993 71.6642C56.6755 71.6642 57.2243 72.2117 57.2243 72.8891V87.0296C57.2243 87.707 56.6755 88.2545 55.9993 88.2545Z" fill="black"/>
<path id="Vector_17" d="M62.597 76.8478C61.9196 76.8478 61.3721 76.3003 61.3721 75.6229V72.955C61.3721 72.2776 61.9196 71.7301 62.597 71.7301C63.2744 71.7301 63.8219 72.2776 63.8219 72.955V75.6229C63.8219 76.3003 63.2731 76.8478 62.597 76.8478Z" fill="black"/>
<path id="Vector_18" d="M31.8861 88.2543C31.2099 88.2543 30.6611 87.7068 30.6611 87.0294V58.316C30.6611 54.8936 33.4454 52.1094 36.8678 52.1094H55.9998C56.676 52.1094 57.2247 52.6569 57.2247 53.3343V62.6951C57.2247 63.3725 56.676 63.92 55.9998 63.92C55.3237 63.92 54.7749 63.3725 54.7749 62.6951V54.5592H36.8678C34.7965 54.5592 33.111 56.2447 33.111 58.316V87.0294C33.111 87.7068 32.5622 88.2543 31.8861 88.2543Z" fill="black"/>
<path id="Vector_19" d="M55.9993 88.2545C55.3232 88.2545 54.7744 87.707 54.7744 87.0296V72.8891C54.7744 72.2117 55.3232 71.6642 55.9993 71.6642C56.6755 71.6642 57.2243 72.2117 57.2243 72.8891V87.0296C57.2243 87.707 56.6755 88.2545 55.9993 88.2545Z" fill="black"/>
<path id="Vector_20" d="M49.3997 76.8478C48.7236 76.8478 48.1748 76.3003 48.1748 75.6229V72.955C48.1748 72.2776 48.7236 71.7301 49.3997 71.7301C50.0759 71.7301 50.6246 72.2776 50.6246 72.955V75.6229C50.6246 76.3003 50.0759 76.8478 49.3997 76.8478Z" fill="black"/>
</g>
</g>
</svg>
