<svg width="34" height="34" viewBox="0 0 34 34" fill="none" xmlns="http://www.w3.org/2000/svg">
<g id="Ykonka-Stolovyye-prybory 1" clip-path="url(#clip0_2013_535)">
<g id="cutlery">
<g id="Group">
<path id="Vector" d="M4.3323 9.3196C4.79593 9.3196 5.10502 9.01051 5.10502 8.54688V0.819602C5.10502 0.355966 4.79593 0.046875 4.3323 0.046875C3.86866 0.046875 3.55957 0.355966 3.55957 0.819602V8.54688C3.55957 9.01051 3.86866 9.3196 4.3323 9.3196Z" fill="#229C6B"/>
<path id="Vector_2" d="M8.42777 3.60142C8.3505 3.21506 8.27322 1.43778 8.19595 0.819602C8.19595 0.355966 7.80959 0.046875 7.34595 0.124148C6.95959 0.046875 6.6505 0.433239 6.6505 0.896875C6.6505 1.12869 6.80504 3.29233 6.88231 3.75597L7.42322 7.77415C7.5005 8.4696 7.26868 9.16506 6.72777 9.62869C6.49595 9.86051 6.10959 10.0923 5.8005 10.1696C5.18231 10.3241 4.71868 10.7105 4.33231 11.1741C3.94595 10.7105 3.48231 10.4014 2.86413 10.1696C2.47777 10.0923 2.16868 9.86051 1.93686 9.62869C1.39595 9.16506 1.16413 8.4696 1.24141 7.77415L1.78231 3.75597C1.85959 3.29233 2.01413 1.12869 2.01413 0.896875C2.01413 0.433239 1.70504 0.046875 1.31868 0.046875C0.855042 0.046875 0.468678 0.355966 0.468678 0.742329C0.391405 1.43778 0.314132 3.21506 0.23686 3.60142L-0.304049 7.54233C-0.458595 8.70142 0.00504151 9.86051 0.855042 10.7105C1.31868 11.0969 1.78231 11.406 2.4005 11.6378C3.09595 11.8696 3.55959 12.4878 3.55959 13.1832V18.5923C3.55959 18.8241 3.63686 18.9787 3.79141 19.1332L4.17777 19.5196C4.79595 20.1378 5.10504 20.9105 5.10504 21.7605V31.7287C5.10504 32.1923 4.79595 32.5014 4.33231 32.5014C3.86868 32.5014 3.55959 32.1923 3.55959 31.7287V20.9105C3.55959 20.4469 3.2505 20.1378 2.78686 20.1378C2.32322 20.1378 2.01413 20.4469 2.01413 20.9105V31.7287C2.01413 33.0423 3.01868 34.0469 4.33231 34.0469C5.64595 34.0469 6.6505 33.0423 6.6505 31.7287V21.7605C6.6505 20.5241 6.18686 19.3651 5.25959 18.5151L5.10504 18.2832V13.1832C5.10504 12.4878 5.56868 11.8696 6.26413 11.6378C6.80504 11.4832 7.34595 11.1741 7.80959 10.7105C8.65959 9.86051 9.12322 8.70142 8.96868 7.54233L8.42777 3.60142Z" fill="#229C6B"/>
<path id="Vector_3" d="M17.4687 0.046875C14.2232 0.046875 13.2187 1.6696 12.6778 4.2196C12.3687 5.53324 12.0596 9.3196 12.0596 9.55142C12.0596 11.7151 13.605 13.3378 16.0778 13.8014C16.4641 13.8787 16.6959 14.1878 16.6959 14.5741V18.5923C16.6959 18.8241 16.7732 18.9787 16.9278 19.1332L17.3141 19.5196C17.9323 20.1378 18.2414 20.9105 18.2414 21.7605V31.7287C18.2414 32.1923 17.9323 32.5014 17.4687 32.5014C17.005 32.5014 16.6959 32.1923 16.6959 31.7287V20.9105C16.6959 20.4469 16.3868 20.1378 15.9232 20.1378C15.4596 20.1378 15.1505 20.4469 15.1505 20.9105V31.7287C15.1505 33.0423 16.155 34.0469 17.4687 34.0469C18.7823 34.0469 19.7868 33.0423 19.7868 31.7287V21.7605C19.7868 20.5241 19.3232 19.3651 18.3959 18.5151L18.2414 18.2832V14.5741C18.2414 14.1878 18.4732 13.8787 18.8596 13.8014C21.3323 13.3378 22.8778 11.7151 22.8778 9.47415C22.8778 9.3196 22.5687 5.53324 22.2596 4.2196C21.7187 1.6696 20.7141 0.046875 17.4687 0.046875ZM18.5505 12.3332C18.1641 12.4105 17.7778 12.6423 17.4687 12.8741C17.1596 12.5651 16.7732 12.4105 16.3868 12.3332C14.6868 12.0241 13.605 11.0196 13.605 9.62869C13.605 9.62869 13.9141 5.76506 14.1459 4.60597C14.6868 2.21051 15.3823 1.59233 17.4687 1.59233C19.555 1.59233 20.2505 2.21051 20.7914 4.60597C21.0232 5.76506 21.3323 9.55142 21.3323 9.55142C21.3323 10.9423 20.3278 12.0241 18.5505 12.3332Z" fill="#229C6B"/>
<path id="Vector_4" d="M27.2823 0.201432C27.0504 -0.0303864 26.7414 -0.0303864 26.4323 0.0468864C26.1232 0.278705 25.9686 0.510523 25.9686 0.819614V31.7287C25.9686 33.0423 26.9732 34.0469 28.2868 34.0469C29.6004 34.0469 30.605 33.0423 30.605 31.7287V24.156C30.605 23.306 30.2959 22.5333 29.6777 21.9923C29.3686 21.6833 28.905 21.6833 28.5959 21.9923C28.2868 22.3014 28.2868 22.7651 28.5959 23.0742C28.905 23.3832 29.0595 23.7696 29.0595 24.156V31.7287C29.0595 32.1923 28.7504 32.5014 28.2868 32.5014C27.8232 32.5014 27.5141 32.1923 27.5141 31.7287V2.67416C30.4504 5.84234 32.1504 10.0923 32.1504 14.4969V19.3651H29.8323C29.3686 19.3651 29.0595 19.6742 29.0595 20.1378C29.0595 20.6014 29.3686 20.9105 29.8323 20.9105H32.9232C33.3868 20.9105 33.6959 20.6014 33.6959 20.1378V14.4196C33.6959 9.01052 31.3777 3.83325 27.2823 0.201432Z" fill="#229C6B"/>
</g>
</g>
</g>
<defs>
<clipPath id="clip0_2013_535">
<rect width="34" height="34" fill="white"/>
</clipPath>
</defs>
</svg>
