<svg width="34" height="34" viewBox="0 0 34 34" fill="none" xmlns="http://www.w3.org/2000/svg">
<g id="Ykonka-Kuhonny-ynventar 1" clip-path="url(#clip0_2013_14387)">
<g id="pot">
<g id="Group">
<path id="Vector" d="M8.0603 21.318C8.0603 21.7816 8.36939 22.0907 8.83303 22.0907C9.29667 22.0907 9.60576 21.7816 9.60576 21.318C9.60576 20.8543 9.29667 20.5453 8.83303 20.5453C8.36939 20.5453 8.0603 20.8543 8.0603 21.318Z" fill="#229C6B"/>
<path id="Vector_2" d="M28.9239 12.818C28.4603 12.818 28.1512 13.1271 28.1512 13.5907V27.4998C28.1512 28.8135 27.1466 29.818 25.833 29.818H8.83301C7.51937 29.818 6.51483 28.8135 6.51483 27.4998V10.4998C6.51483 8.33618 8.21483 6.63618 10.3785 6.63618H15.0148C15.4012 6.63618 15.7103 6.40436 15.7876 6.018L16.2512 4.08618C16.3285 3.77709 16.6376 3.468 17.0239 3.468H19.2648C19.6512 3.468 19.9603 3.69982 20.0376 4.08618L20.1921 5.09073H18.1057C17.6421 5.09073 17.333 5.39982 17.333 5.86345C17.333 6.32709 17.6421 6.63618 18.1057 6.63618H24.2876C25.3694 6.63618 26.4512 7.09982 27.1466 7.94982C27.3012 8.10436 27.533 8.18163 27.6876 8.18163C27.8421 8.18163 28.0739 8.10436 28.2285 7.94982C28.5376 7.64073 28.5376 7.17709 28.3057 6.868C27.3012 5.78618 25.833 5.09073 24.2876 5.09073H21.8148L21.5057 3.77709C21.1966 2.69527 20.2694 1.99982 19.1876 1.99982H16.9466C15.8648 1.99982 14.9376 2.69527 14.7057 3.77709L14.3966 5.09073H10.3785C7.67392 5.09073 5.43301 7.09982 5.04664 9.72709H2.18755C1.18301 9.72709 0.333008 10.5771 0.333008 11.5816C0.333008 12.0453 0.564826 12.5862 0.873917 12.8953L2.11028 14.1316C2.26483 14.2862 2.41937 14.3635 2.65119 14.3635C2.88301 14.3635 3.03755 14.2862 3.1921 14.1316C3.50119 13.8225 3.50119 13.3589 3.1921 13.0498L1.95573 11.8135C1.87846 11.7362 1.87846 11.6589 1.87846 11.5816C1.87846 11.4271 2.03301 11.2725 2.18755 11.2725H4.96937V27.4998C4.96937 29.6635 6.66937 31.3635 8.83301 31.3635H25.833C27.9966 31.3635 29.6966 29.6635 29.6966 27.4998V13.5907C29.6966 13.1271 29.3876 12.818 28.9239 12.818Z" fill="#229C6B"/>
<path id="Vector_3" d="M9.60576 14.3635C9.60576 13.8998 9.29667 13.5907 8.83303 13.5907C8.36939 13.5907 8.0603 13.8998 8.0603 14.3635V18.9998C8.0603 19.4635 8.36939 19.7725 8.83303 19.7725C9.29667 19.7725 9.60576 19.4635 9.60576 18.9998V14.3635Z" fill="#229C6B"/>
<path id="Vector_4" d="M32.4785 9.72708H8.83303C8.36939 9.72708 8.0603 10.0362 8.0603 10.4998C8.0603 10.9634 8.36939 11.2725 8.83303 11.2725H32.4785C32.633 11.2725 32.7876 11.4271 32.7876 11.5816C32.7876 11.6589 32.7876 11.7362 32.7103 11.8134L31.4739 13.0498C31.1648 13.3589 31.1648 13.8225 31.4739 14.1316C31.6285 14.2862 31.8603 14.3634 32.0148 14.3634C32.2467 14.3634 32.4012 14.2862 32.5558 14.1316L33.7921 12.8953C34.1012 12.5862 34.333 12.0453 34.333 11.5816C34.333 10.5771 33.483 9.72708 32.4785 9.72708Z" fill="#229C6B"/>
</g>
</g>
</g>
<defs>
<clipPath id="clip0_2013_14387">
<rect width="34" height="34" fill="white"/>
</clipPath>
</defs>
</svg>
