<svg width="34" height="34" viewBox="0 0 34 34" fill="none" xmlns="http://www.w3.org/2000/svg">
<g id="klining-i-gigiena 1" clip-path="url(#clip0_2013_3453)">
<g id="XMLID_693_">
<path id="XMLID_696_" d="M20.5318 5.02273C20.8409 5.02273 21.15 4.79091 21.2273 4.48182H24.6273L25.2455 5.02273C25.6318 5.40909 26.1727 5.64091 26.7136 5.64091C27.2545 5.64091 27.7955 5.40909 28.1818 5.02273C28.9545 4.25 28.9545 3.01364 28.1818 2.24091L27.1 1.15909C26.6364 0.695454 26.0182 0.463636 25.4 0.463636H21.3045C21.15 0.231818 20.9182 0 20.5318 0H10.6409C10.2545 0 9.94545 0.309091 9.94545 0.695454V4.40455C9.94545 4.79091 10.2545 5.1 10.6409 5.1H13.2682V6.95455H12.4955C11.1045 6.95455 9.94545 8.03636 9.94545 9.42727V10.7409C7.16364 10.9727 5 13.2136 5 15.9955V30.9864C5 32.6864 6.46818 34.1545 8.24545 34.1545H22.9273C24.7045 34.1545 26.1727 32.7636 26.1727 30.9864V25.4227C26.1727 25.0364 25.8636 24.7273 25.4773 24.7273C25.0909 24.7273 24.8591 24.9591 24.8591 25.2682V30.8318C24.8591 31.8364 24.0091 32.6864 22.9273 32.6864H8.24545C7.16364 32.6864 6.31364 31.8364 6.31364 30.8318V15.8409C6.31364 13.6773 8.16818 11.9 10.4091 11.9H20.7636C23.0045 11.9 24.8591 13.6773 24.8591 15.8409V19.3182C24.8591 19.7045 25.1682 20.0136 25.5545 20.0136C25.9409 20.0136 26.25 19.7045 26.25 19.3182V15.8409C26.25 13.1364 24.0864 10.8182 21.3045 10.5864V9.27273C21.3045 7.88182 20.1455 6.8 18.7545 6.8H17.9818V5.02273H20.5318ZM26.0182 2.16364L27.1773 3.24545C27.4091 3.47727 27.4091 3.94091 27.1773 4.17273C26.9455 4.40455 26.4818 4.40455 26.1727 4.17273L25.4 3.4C25.2455 3.24545 25.0909 3.16818 24.9364 3.16818H21.3045V1.85455H25.4C25.5545 1.85455 25.8636 1.93182 26.0182 2.16364ZM11.2591 1.31364H19.8364V3.70909H11.2591V1.31364ZM19.8364 9.35V10.5864H11.2591V9.35C11.2591 8.73182 11.8 8.19091 12.4182 8.19091H18.6C19.2955 8.26818 19.8364 8.73182 19.8364 9.35ZM16.5136 6.87727H14.5818V5.02273H16.5136V6.87727Z" fill="#249C6B"/>
<path id="XMLID_702_" d="M10.2545 16.5364C9.86817 16.5364 9.55908 16.8455 9.55908 17.2318V27.4318C9.55908 27.8182 9.86817 28.1273 10.2545 28.1273H20.9182C21.3045 28.1273 21.6136 27.8182 21.6136 27.4318V17.2318C21.6136 16.8455 21.3045 16.5364 20.9182 16.5364H10.2545ZM20.2227 26.7364H10.95V17.85H20.2227V26.7364Z" fill="#249C6B"/>
<path id="XMLID_709_" d="M25.4773 21.1727C25.1682 21.1727 24.8591 21.3273 24.7046 21.4818C24.4728 21.7136 24.3955 21.9455 24.3955 22.2545C24.3955 22.5636 24.5501 22.8727 24.7046 23.0273C24.9364 23.2591 25.1682 23.3364 25.4773 23.3364C25.7864 23.3364 26.0955 23.1818 26.2501 23.0273C26.4819 22.7955 26.5591 22.5636 26.5591 22.2545C26.5591 21.9455 26.4046 21.6364 26.2501 21.4818C26.0955 21.3273 25.7864 21.1727 25.4773 21.1727Z" fill="#249C6B"/>
</g>
</g>
<defs>
<clipPath id="clip0_2013_3453">
<rect width="34" height="34" fill="white"/>
</clipPath>
</defs>
</svg>
