<svg width="22" height="21" viewBox="0 0 22 21" fill="none" xmlns="http://www.w3.org/2000/svg">
<path d="M7.38028 7.35323C8.07627 8.80285 9.02506 10.1615 10.2266 11.3631C11.4282 12.5646 12.7869 13.5134 14.2365 14.2094C14.3612 14.2693 14.4235 14.2992 14.5024 14.3222C14.7828 14.404 15.127 14.3453 15.3644 14.1752C15.4313 14.1274 15.4884 14.0702 15.6027 13.9559C15.9523 13.6063 16.1271 13.4315 16.3029 13.3172C16.9658 12.8862 17.8204 12.8862 18.4833 13.3172C18.6591 13.4315 18.8339 13.6063 19.1835 13.9559L19.3783 14.1508C19.9098 14.6822 20.1755 14.948 20.3198 15.2333C20.6069 15.8009 20.6069 16.4712 20.3198 17.0387C20.1755 17.3241 19.9098 17.5898 19.3783 18.1213L19.2207 18.2789C18.6911 18.8085 18.4263 19.0733 18.0662 19.2756C17.6667 19.5 17.0462 19.6614 16.588 19.66C16.1751 19.6588 15.8928 19.5787 15.3284 19.4185C12.295 18.5575 9.43264 16.933 7.04466 14.545C4.65668 12.1571 3.03221 9.29471 2.17124 6.26131C2.01103 5.69687 1.93092 5.41464 1.9297 5.0017C1.92833 4.54347 2.08969 3.92298 2.31411 3.52348C2.51636 3.16345 2.78117 2.89863 3.3108 2.36901L3.46843 2.21138C3.99987 1.67993 4.2656 1.41421 4.55098 1.26987C5.11854 0.982798 5.7888 0.982798 6.35636 1.26987C6.64174 1.41421 6.90747 1.67993 7.43891 2.21138L7.63378 2.40625C7.98338 2.75585 8.15819 2.93065 8.27247 3.10643C8.70347 3.76932 8.70347 4.6239 8.27247 5.28679C8.15819 5.46257 7.98338 5.63738 7.63378 5.98698C7.51947 6.10129 7.46231 6.15845 7.41447 6.22526C7.24446 6.46269 7.18576 6.80695 7.26748 7.0873C7.29048 7.1662 7.32041 7.22854 7.38028 7.35323Z" stroke="#4E4F53" stroke-width="2" stroke-linecap="round" stroke-linejoin="round"/>
</svg>
