<svg xmlns="http://www.w3.org/2000/svg" width="80" height="61" viewBox="0 0 80 61" fill="none">
<g clip-path="url(#clip0_2056_5047)">
<path d="M22.4 0.0332031H36.1L49.8667 36.9665C45.4667 36.9665 49.8667 36.9665 43.9333 36.9665L37.2 37.0332H21.1334L18.7 44.5665H6.93335L22.4 0.0332031ZM24.0333 27.7999H34.3333L29.2333 12.3999L24.0333 27.7999Z" fill="#249C6B"/>
<path d="M0 60.9331H1L1.63333 59.2998H4.86667L5.46667 60.9331H6.46667L3.86667 53.7998H2.73333L0 60.9331ZM3.3 54.9665L4.63333 58.4998H1.9L3.3 54.9665ZM12.4333 59.0331C11.9333 59.5331 11.1333 59.9665 10.2667 59.9665C8.86667 59.9665 7.96667 59.0331 7.96667 57.3998C7.96667 55.7665 8.9 54.7998 10.2333 54.7998C11.3667 54.7998 11.9667 55.4998 12 56.6331L12.9333 56.4331C12.9 54.7998 11.9333 53.7998 10.2667 53.7998C8.33333 53.7998 6.93333 55.1331 6.93333 57.3665C6.93333 59.5998 8.33333 60.9331 10.2667 60.9331C11.3333 60.9331 12.3667 60.3998 12.9333 59.7998L12.4333 59.0331ZM19.3333 59.0331C18.8333 59.5331 18.0333 59.9665 17.1667 59.9665C15.7667 59.9665 14.8333 59.0331 14.8333 57.3998C14.8333 55.7665 15.7667 54.7998 17.1 54.7998C18.2333 54.7998 18.8333 55.4998 18.8667 56.6331L19.8 56.4331C19.7667 54.7998 18.8 53.7998 17.1333 53.7998C15.2 53.7998 13.8 55.1331 13.8 57.3665C13.8 59.5998 15.2 60.9331 17.1333 60.9331C18.2 60.9331 19.2333 60.3998 19.8 59.7998L19.3333 59.0331ZM20.9 57.3665C20.9 59.3998 22.3333 60.9331 24.2333 60.9331C26.1667 60.9331 27.6 59.3998 27.6 57.3665C27.6 55.3331 26.1667 53.7998 24.2333 53.7998C22.3333 53.7998 20.9 55.3331 20.9 57.3665ZM21.8667 57.3665C21.8667 55.8998 22.8667 54.7998 24.2333 54.7998C25.6333 54.7998 26.6 55.8998 26.6 57.3665C26.6 58.8331 25.6 59.9331 24.2333 59.9331C22.8667 59.9331 21.8667 58.8331 21.8667 57.3665ZM28.7667 60.9331H29.7667V58.1998H30.7667C31.5333 58.7998 32.6 60.9331 34.0333 60.9331C34.4333 60.9331 34.8 60.7998 35.0667 60.6665L34.9667 59.7998C34.7333 59.9331 34.4333 59.9998 34.1667 59.9998C33.3667 59.9998 32.6333 58.8998 32 58.1998C33.1333 58.1331 34.0333 57.2998 34.0333 56.0331C34.0333 54.3998 32.8333 53.7998 31.5667 53.7998H28.7333V60.9331H28.7667ZM31.7 54.7331C32.4333 54.7331 33 55.1665 33 56.0331C33 56.8331 32.4333 57.3331 31.7 57.3331H29.7667V54.7331H31.7ZM35.9 60.8331H38.5333C40.4667 60.8331 41.9 59.5998 41.9 57.3665C41.9 55.0998 40.4667 53.8998 38.5333 53.8998H35.9V60.8331ZM38.5 54.8331C39.9 54.8331 40.8667 55.7331 40.8667 57.3665C40.8667 58.9998 39.8667 59.8998 38.5 59.8998H36.9V54.8331H38.5ZM48.4333 56.9665V57.8998H50.4667V59.4665C50.0333 59.7665 49.4333 59.9665 48.7667 59.9665C47.3333 59.9665 46.2667 59.0331 46.2667 57.3998C46.2667 55.7665 47.3333 54.7998 48.7333 54.7998C49.5667 54.7998 50.2 55.0998 50.7333 55.5998L51.2 54.7998C50.5333 54.2331 49.7667 53.8331 48.7 53.8331C46.7667 53.8331 45.2333 55.1665 45.2333 57.3998C45.2333 59.6331 46.7667 60.9665 48.7 60.9665C49.7 60.9665 50.8333 60.5331 51.4333 60.0665V56.9998H48.4333V56.9665ZM52.9333 60.9331H53.9333V58.1998H54.9333C55.7 58.7998 56.7333 60.9665 58.1667 60.9665C58.5667 60.9665 58.9333 60.8331 59.2 60.6998L59.1 59.8331C58.8667 59.9665 58.5667 60.0331 58.3 60.0331C57.5 60.0331 56.8 58.8998 56.1667 58.1998C57.3 58.1331 58.2 57.2998 58.2 56.0331C58.2 54.3998 57 53.7998 55.7333 53.7998H52.9V60.9331H52.9333ZM55.8667 54.7331C56.6 54.7331 57.1667 55.1665 57.1667 56.0331C57.1667 56.8331 56.6 57.3331 55.8667 57.3331H53.9333V54.7331H55.8667ZM59.6667 57.3665C59.6667 59.3998 61.1 60.9331 63 60.9331C64.9333 60.9331 66.3667 59.3998 66.3667 57.3665C66.3667 55.3331 64.9333 53.7998 63 53.7998C61.1 53.7998 59.6667 55.3331 59.6667 57.3665ZM60.6667 57.3665C60.6667 55.8998 61.6667 54.7998 63.0333 54.7998C64.4333 54.7998 65.4 55.8998 65.4 57.3665C65.4 58.8331 64.4 59.9331 63.0333 59.9331C61.6667 59.9331 60.6667 58.8331 60.6667 57.3665ZM68.6667 53.8331H67.6667V57.9998C67.6667 59.7331 68.6333 60.9665 70.5333 60.9665C72.4333 60.9665 73.4333 59.5998 73.4333 57.9998V53.8331H72.4333V57.8998C72.4333 59.0998 71.8333 59.9665 70.5333 59.9665C69.2667 59.9665 68.6667 59.1665 68.6667 57.8998V53.8331ZM74.7333 60.9331H75.7333V58.6998H77.7C78.9333 58.6998 80.0333 57.7998 80.0333 56.2665C80.0333 54.5665 78.9667 53.7998 77.7 53.7998H74.7667V60.9331H74.7333ZM77.5333 54.7331C78.3333 54.7331 78.9667 55.2665 78.9667 56.2665C78.9667 57.1998 78.3333 57.7665 77.5333 57.7665H75.7333V54.6998H77.5333V54.7331Z" fill="#4C4E53"/>
<path d="M73.4334 38.4C72.4667 39.2 71.3 39.9667 69.9334 40.7333C68.5667 41.4667 67.0667 42.1333 65.4667 42.7C63.8667 43.2667 62.2001 43.7333 60.5334 44.0667C58.8334 44.4 57.2 44.5667 55.6334 44.5667C52.6334 44.5667 49.7667 44.0667 47.1334 43.0667C44.4667 42.0667 42.1667 40.6333 40.2 38.7C38.2334 36.8 36.6667 34.4667 35.5334 31.7C34.4 28.9333 33.8 25.8333 33.8 22.3333C33.8 18.8 34.3667 15.6667 35.5334 12.9333C36.6667 10.1667 38.2334 7.83333 40.2 5.93333C42.1667 4.03333 44.4667 2.56667 47.1334 1.53333C49.8 0.5 52.6334 0 55.6334 0C58.9667 0 62.0001 0.533333 64.7001 1.6C67.4334 2.7 69.8334 4.03333 71.8667 5.7L66.6334 15C63.7 12.5333 60.1334 11.3 55.9667 11.3C54.5334 11.3 53.1667 11.5333 51.9334 12.0333C50.7001 12.5333 49.6001 13.2333 48.7001 14.1667C47.8001 15.1 47.1 16.2667 46.6 17.6333C46.1 19 45.8334 20.6 45.8334 22.3667C45.8334 25.9 46.8 28.6 48.7667 30.4667C50.7334 32.3667 53.2667 33.3 56.4667 33.3C57.5 33.3 58.6 33.1667 59.7334 32.9333C60.8667 32.6667 61.9334 32.3333 63 31.8667V27.6667H53.9667V18.5667H73.5V38.4H73.4334Z" fill="#4C4E53"/>
</g>
<defs>
<clipPath id="clip0_2056_5047">
<rect width="80" height="60.9333" fill="white" transform="translate(0 0.0332031)"/>
</clipPath>
</defs>
</svg>