<svg width="100" height="100" viewBox="0 0 100 100" fill="none" xmlns="http://www.w3.org/2000/svg">
<g id="Group 14">
<path id="Vector" d="M88.9695 90.7961H11.0317C10.0229 90.7961 9.20508 89.9783 9.20508 88.9694V11.0316C9.20508 10.0227 10.0229 9.20496 11.0317 9.20496H88.9695C89.9784 9.20496 90.7962 10.0227 90.7962 11.0316V88.9694C90.7962 89.9783 89.9784 90.7961 88.9695 90.7961Z" fill="#249C6B"/>
<g id="Group">
<path id="Vector_2" d="M98.8898 80.6567C98.2754 80.6567 97.7787 80.16 97.7787 79.5456V2.22222H63.572C62.9576 2.22222 62.4609 1.72444 62.4609 1.11111C62.4609 0.497778 62.9576 0 63.572 0H98.8898C99.5043 0 100.001 0.497778 100.001 1.11111V79.5456C100.001 80.16 99.5043 80.6567 98.8898 80.6567Z" fill="black"/>
<path id="Vector_3" d="M79.6722 100H1.11111C0.497778 100 0 99.5033 0 98.8889V1.11111C0 0.497778 0.497778 0 1.11111 0H25.3189C25.9322 0 26.43 0.497778 26.43 1.11111C26.43 1.72444 25.9322 2.22222 25.3189 2.22222H2.22222V97.7778H79.6722C80.2867 97.7778 80.7833 98.2745 80.7833 98.8889C80.7833 99.5033 80.2867 100 79.6722 100Z" fill="black"/>
<path id="Vector_4" d="M63.5706 29.3633C63.3361 29.3633 63.1039 29.29 62.9084 29.1444L49.9995 19.56L37.0917 29.1444C36.755 29.3967 36.305 29.4344 35.9306 29.2456C35.555 29.0567 35.3184 28.6722 35.3184 28.2522V1.11111C35.3184 0.497778 35.8161 0 36.4295 0H49.9995C50.6128 0 51.1106 0.497778 51.1106 1.11111C51.1106 1.72444 50.6128 2.22222 49.9995 2.22222H37.5406V26.0433L49.3372 17.2844C49.7306 16.9922 50.2684 16.9922 50.6617 17.2844L62.4595 26.0433V1.11111C62.4595 0.497778 62.9561 0 63.5706 0C64.185 0 64.6817 0.497778 64.6817 1.11111V28.2522C64.6817 28.6722 64.445 29.0567 64.0695 29.2456C63.9117 29.3244 63.7406 29.3633 63.5706 29.3633Z" fill="black"/>
<path id="Vector_5" d="M33.9762 76.1724H15.534C14.9206 76.1724 14.4229 75.6758 14.4229 75.0613C14.4229 74.4469 14.9206 73.9502 15.534 73.9502H33.9762C34.5895 73.9502 35.0873 74.4469 35.0873 75.0613C35.0873 75.6758 34.5895 76.1724 33.9762 76.1724Z" fill="black"/>
<path id="Vector_6" d="M33.9762 86.2472H15.534C14.9206 86.2472 14.4229 85.7506 14.4229 85.1361C14.4229 84.5217 14.9206 84.025 15.534 84.025H33.9762C34.5895 84.025 35.0873 84.5217 35.0873 85.1361C35.0873 85.7506 34.5895 86.2472 33.9762 86.2472Z" fill="black"/>
<g id="Group_2">
<path id="Vector_7" d="M64.6407 76.3663C64.054 76.3663 63.5629 75.9063 63.5318 75.3129C63.5007 74.6996 63.9718 74.1774 64.584 74.1452C67.5207 73.9941 70.3251 72.8063 72.4829 70.8018C74.9429 68.5163 76.3651 65.4107 76.4874 62.0563C76.6107 58.7007 75.4207 55.4996 73.1351 53.0396C70.8496 50.5807 67.7429 49.1574 64.3896 49.0341C61.0274 48.9285 57.8329 50.1018 55.3729 52.3863C50.2963 57.103 50.0029 65.0718 54.7196 70.1485C55.1374 70.5974 55.1118 71.3007 54.6618 71.7185C54.214 72.1341 53.5118 72.1118 53.0918 71.6607C47.5407 65.6863 47.8851 56.3096 53.8596 50.7574C56.7529 48.0696 60.4951 46.6641 64.4707 46.8118C68.4185 46.9574 72.074 48.6307 74.7629 51.5252C77.4518 54.4196 78.854 58.1874 78.7085 62.1363C78.5629 66.0841 76.8885 69.7396 73.9951 72.4285C71.4563 74.7885 68.154 76.1852 64.6985 76.3641C64.6796 76.3663 64.6596 76.3663 64.6407 76.3663Z" fill="black"/>
<path id="Vector_8" d="M94.5332 100C94.4655 100 94.3977 99.999 94.3277 99.9968C92.8677 99.9423 91.5155 99.3246 90.5199 98.2534L74.4566 80.9646C65.7932 85.6723 54.7766 83.9801 47.9377 76.7746C39.9121 68.3157 39.9732 54.6323 48.0721 46.2734C52.281 41.929 57.901 39.5446 63.9188 39.5446C63.9977 39.5446 64.0777 39.5446 64.1577 39.5457C70.2688 39.6101 75.9254 42.1101 80.0832 46.5857C86.9221 53.9468 87.871 65.1312 82.4754 73.5146L98.5366 90.8034C99.5321 91.8746 100.05 93.2679 99.9966 94.7279C99.9421 96.189 99.3243 97.5412 98.2532 98.5357C97.2343 99.4846 95.9188 100 94.5332 100ZM74.6721 78.4512C74.9732 78.4512 75.2699 78.5723 75.4854 78.8057L92.1477 96.7401C92.7388 97.3757 93.5421 97.7434 94.4088 97.7757C95.2699 97.7934 96.1032 97.5001 96.741 96.909C97.3766 96.319 97.7443 95.5157 97.7766 94.649C97.8077 93.7812 97.501 92.9534 96.9099 92.3168L80.2488 74.3823C79.8921 73.9979 79.8521 73.4157 80.1543 72.9868C85.5043 65.3834 84.791 54.9168 78.4566 48.099C74.7177 44.0734 69.631 41.8257 64.1343 41.7679C58.6655 41.7123 53.5055 43.8601 49.6688 47.819C42.3866 55.3346 42.3343 67.6368 49.551 75.2434C55.8866 81.9201 66.2121 83.3357 74.101 78.609C74.2788 78.5034 74.4755 78.4512 74.6721 78.4512Z" fill="black"/>
</g>
</g>
</g>
</svg>
