<svg width="114" height="100" viewBox="0 0 114 100" fill="none" xmlns="http://www.w3.org/2000/svg">
<g id="Group 11">
<g id="Group">
<path id="Vector" d="M27.8633 33.079L35.9733 68.4278H96.6178L104.728 33.079H49.3534H27.8633Z" fill="#249C6B"/>
<path id="Vector_2" d="M96.5374 14.4697H73.3643V21.7746H96.5374V14.4697Z" fill="#249C6B"/>
</g>
<g id="Group_2">
<g id="Group_3">
<path id="Vector_3" d="M101.642 74.708H30.9497C30.3632 74.708 29.8545 74.3024 29.7251 73.7309L18.7439 25.5006C17.6324 20.616 13.357 17.206 8.34804 17.206H1.73647C1.04316 17.206 0.480469 16.6433 0.480469 15.95C0.480469 15.2567 1.04316 14.694 1.73647 14.694H8.34804C14.5363 14.694 19.8191 18.9078 21.1931 24.9429L31.9507 72.1973H100.639L110.689 28.0565H49.3538C48.6605 28.0565 48.0978 27.4938 48.0978 26.8005C48.0978 26.1072 48.6605 25.5445 49.3538 25.5445H112.264C112.647 25.5445 113.008 25.7191 113.245 26.0168C113.484 26.3157 113.574 26.7063 113.488 27.0794L102.866 73.7309C102.736 74.3024 102.229 74.708 101.642 74.708Z" fill="black"/>
<path id="Vector_4" d="M24.8942 92.0332C19.4256 92.0332 14.9756 87.5845 14.9756 82.1159C14.9756 76.6473 19.4243 72.1973 24.8942 72.1973H101.563C102.257 72.1973 102.819 72.7587 102.819 73.4533C102.819 74.1478 102.257 74.7093 101.563 74.7093H24.8942C20.8109 74.7093 17.4876 78.0326 17.4876 82.1159C17.4876 86.1991 20.8109 89.5212 24.8942 89.5212C25.5875 89.5212 26.1502 90.0827 26.1502 90.7772C26.1502 91.4718 25.5875 92.0332 24.8942 92.0332Z" fill="black"/>
<path id="Vector_5" d="M92.6991 99.9999C87.6148 99.9999 83.4775 95.8626 83.4775 90.7771C83.4775 85.6916 87.6148 81.5543 92.6991 81.5543C97.7846 81.5543 101.922 85.6916 101.922 90.7771C101.922 95.8626 97.7846 99.9999 92.6991 99.9999ZM92.6991 84.0663C89.0002 84.0663 85.9895 87.0757 85.9895 90.7771C85.9895 94.4785 88.9989 97.4879 92.6991 97.4879C96.3992 97.4879 99.4099 94.4785 99.4099 90.7771C99.4099 87.0757 96.3992 84.0663 92.6991 84.0663Z" fill="black"/>
<path id="Vector_6" d="M43.1317 99.9999C38.0474 99.9999 33.9102 95.8626 33.9102 90.7771C33.9102 85.6916 38.0474 81.5543 43.1317 81.5543C48.2172 81.5543 52.3545 85.6916 52.3545 90.7771C52.3545 95.8626 48.2172 99.9999 43.1317 99.9999ZM43.1317 84.0663C39.4315 84.0663 36.4222 87.0757 36.4222 90.7771C36.4222 94.4785 39.4315 97.4879 43.1317 97.4879C46.8319 97.4879 49.8425 94.4785 49.8425 90.7771C49.8425 87.0757 46.8319 84.0663 43.1317 84.0663Z" fill="black"/>
<path id="Vector_7" d="M73.4361 92.0335H51.1007C50.4074 92.0335 49.8447 91.472 49.8447 90.7775C49.8447 90.0829 50.4074 89.5215 51.1007 89.5215H73.4361C74.1307 89.5215 74.6921 90.0829 74.6921 90.7775C74.6921 91.472 74.1307 92.0335 73.4361 92.0335Z" fill="black"/>
<path id="Vector_8" d="M101.561 28.0549H68.34C67.6454 28.0549 67.084 27.4922 67.084 26.7989V9.44606C67.084 8.75275 67.6454 8.19006 68.34 8.19006H101.561C102.256 8.19006 102.817 8.75275 102.817 9.44606V26.7989C102.817 27.4935 102.256 28.0549 101.561 28.0549ZM69.596 25.5429H100.305V10.7021H69.596V25.5429Z" fill="black"/>
<path id="Vector_9" d="M35.4093 28.0552C34.716 28.0552 34.1533 27.4925 34.1533 26.7992V1.256C34.1533 0.562687 34.716 0 35.4093 0H78.9987C79.6933 0 80.2547 0.562687 80.2547 1.256V9.44636C80.2547 10.1397 79.6933 10.7024 78.9987 10.7024C78.3041 10.7024 77.7427 10.1397 77.7427 9.44636V2.512H36.6653V26.7992C36.6653 27.4938 36.1026 28.0552 35.4093 28.0552Z" fill="black"/>
</g>
<path id="Vector_10" d="M65.793 65.3318C65.4589 65.3318 65.1399 65.2 64.905 64.9638L52.2898 52.3473C48.449 48.5052 48.449 42.2554 52.2898 38.4158C55.99 34.7144 61.9283 34.5787 65.793 38.0126C69.6552 34.5787 75.5948 34.7144 79.2975 38.4158C83.1384 42.2567 83.1384 48.5065 79.2963 52.3473L66.681 64.9638C66.4462 65.2 66.1271 65.3318 65.793 65.3318ZM59.2556 38.0453C57.3753 38.0453 55.4964 38.76 54.0658 40.1905C51.2046 43.0517 51.2046 47.7077 54.0658 50.5701L65.793 62.2999L77.5203 50.5714C80.3815 47.7102 80.3815 43.053 77.5215 40.1918C74.6579 37.3294 70.0031 37.3306 67.1407 40.1918L66.681 40.6515C66.1899 41.1413 65.3961 41.1413 64.905 40.6515L64.4453 40.1918C63.0148 38.7612 61.1345 38.0453 59.2556 38.0453Z" fill="black"/>
</g>
</g>
</svg>
