<svg xmlns="http://www.w3.org/2000/svg" width="34" height="18" viewBox="0 0 34 18" fill="none">
  <mask id="mask0_3016_36672" style="mask-type:luminance" maskUnits="userSpaceOnUse" x="0" y="0" width="34" height="18">
    <path d="M33.7284 17.8984L33.7284 0.101562L0.27226 0.101561L0.272259 17.8984L33.7284 17.8984Z" fill="white"/>
  </mask>
  <g mask="url(#mask0_3016_36672)">
    <path d="M33.7284 3.77251L33.7284 17.3639C33.7284 17.6526 33.4944 17.8866 33.2057 17.8866L7.0682 17.8866C6.92942 17.8866 6.79661 17.8316 6.69855 17.7335C6.6005 17.6355 6.54551 17.5027 6.54551 17.3639L6.54551 7.43149L0.795126 7.43149C0.656609 7.43149 0.523537 7.37624 0.425482 7.27819C0.327427 7.18013 0.272436 7.04732 0.272436 6.90854L0.272437 0.635742C0.272437 0.496966 0.327428 0.364153 0.425482 0.266098C0.523538 0.168042 0.65661 0.112792 0.795126 0.112792L20.5065 0.112793C21.2001 0.111237 21.8655 0.386976 22.3547 0.878788L22.3687 0.893314L24.5472 3.24941L33.2059 3.24941C33.3444 3.24941 33.4775 3.3044 33.5755 3.40246C33.6736 3.50051 33.7286 3.63358 33.7286 3.7721L33.7284 3.77251ZM32.683 16.8413L32.683 4.29513L14.5388 4.29512C14.26 4.28708 13.9887 4.38436 13.7788 4.56776C13.5687 4.75115 13.4359 5.00692 13.4066 5.28421C13.3918 5.57085 13.4948 5.85126 13.6919 6.0601C13.8885 6.26918 14.163 6.38721 14.4499 6.38617L17.4981 6.38617C18.0003 6.37891 18.4892 6.54674 18.8809 6.86087C19.2729 7.17475 19.5432 7.61544 19.6454 8.10705C19.7551 8.7169 19.5888 9.3436 19.1914 9.8188C18.794 10.294 18.2062 10.5685 17.5868 10.5682L9.71831 10.5682C9.19303 10.5695 8.70223 10.3072 8.41144 9.86987L7.59072 8.63412L7.59072 16.8413L32.683 16.8413ZM20.5068 1.15876L1.31802 1.15876L1.31802 6.38619L7.06841 6.38619C7.1304 6.38749 7.19188 6.39994 7.24973 6.42277C7.26218 6.42744 7.27437 6.43159 7.2863 6.43677L7.2863 6.43703C7.33922 6.4609 7.38746 6.49358 7.42949 6.53353C7.43727 6.54079 7.44349 6.55013 7.45102 6.55817C7.46969 6.57711 7.48733 6.5976 7.50341 6.61887L9.2839 9.29019L9.28364 9.29019C9.38065 9.43546 9.54382 9.52288 9.71865 9.52288L17.5871 9.52288C17.8982 9.52288 18.1928 9.38462 18.3915 9.14571C18.5902 8.90654 18.6724 8.59163 18.6154 8.28608C18.5573 8.03602 18.4138 7.81423 18.2102 7.65859C18.0063 7.50269 17.7547 7.42254 17.4984 7.43188L14.4502 7.43188C13.8772 7.43058 13.3293 7.19504 12.9343 6.78C12.5371 6.36445 12.3304 5.8031 12.3628 5.22929C12.403 4.68351 12.651 4.17376 13.056 3.80547C13.4609 3.43718 13.9919 3.23816 14.5392 3.24984L23.1236 3.24984L21.6076 1.61146C21.315 1.32068 20.9192 1.15798 20.5068 1.15876Z" fill="#249C6B"/>
  </g>
</svg>