<svg xmlns="http://www.w3.org/2000/svg" width="34" height="34" viewBox="0 0 34 34" fill="none">
  <g clip-path="url(#clip0_3016_36224)">
    <path d="M19.9902 27.5963V20.5261H13.9918V27.5963H9.40742L14.9645 33.1669C16.0813 34.2837 17.8917 34.2837 19.013 33.1669L24.5836 27.5963H19.9902ZM6.40821 24.5971V9.40742L0.837616 14.969C-0.279205 16.0858 -0.279205 17.8962 0.837616 19.0175L6.40821 24.5971ZM13.9918 6.39921V13.4694H19.9902V6.39921H24.5836L19.013 0.837616C17.8962 -0.279205 16.0858 -0.279205 14.9645 0.837616L9.40742 6.39921H13.9918ZM33.1444 14.969L27.5828 9.40742V24.5836L33.1534 19.013C34.2702 17.9052 34.2837 16.0948 33.1894 14.978C33.1894 14.978 33.1894 14.978 33.1759 14.9645C33.1759 14.9645 33.1759 14.9645 33.1534 14.9645H33.1444V14.969Z" fill="#DA291C"/>
  </g>
  <defs>
    <clipPath id="clip0_3016_36224">
      <rect width="34" height="34.0045" fill="white"/>
    </clipPath>
  </defs>
</svg>