<svg xmlns="http://www.w3.org/2000/svg" width="34" height="22" viewBox="0 0 34 22" fill="none">
  <path d="M1.3175 0.554035H20.1364C20.4251 0.554035 20.6591 0.788011 20.6591 1.07673V2.64504H27.4551C27.6234 2.64582 27.7809 2.72753 27.8784 2.8645L33.1058 10.1831L33.1061 10.1834C33.172 10.2705 33.207 10.3772 33.2055 10.4864V18.8502C33.2055 18.989 33.1502 19.1218 33.0524 19.2199C32.9544 19.3179 32.8213 19.3729 32.6828 19.3729H28.8406C28.5485 20.1903 27.9309 20.8497 27.1347 21.195C26.3386 21.5402 25.4351 21.5402 24.639 21.195C23.843 20.8497 23.2253 20.1903 22.9332 19.3729H14.2034C13.942 20.108 13.4159 20.7192 12.728 21.0873C12.04 21.4554 11.2395 21.5539 10.4831 21.3635C9.72639 21.1731 9.06784 20.7075 8.6362 20.0577C8.2043 20.7075 7.54568 21.1731 6.78931 21.3635C6.03261 21.5539 5.23215 21.4554 4.54418 21.0873C3.85628 20.7192 3.33021 20.108 3.0687 19.3729H1.3175C1.17898 19.3729 1.04591 19.3179 0.947857 19.2199C0.849801 19.1218 0.794811 18.989 0.794811 18.8502V1.0766C0.794811 0.938082 0.849803 0.805011 0.947857 0.706956C1.04591 0.608901 1.17898 0.553909 1.3175 0.553909V0.554035ZM19.6137 1.5994H1.84012V2.64477L19.6137 2.64503V1.5994ZM6.02172 15.1914C7.07386 15.192 8.05515 15.7201 8.63567 16.5977C9.17236 15.7899 10.0525 15.2758 11.0198 15.2052C11.9871 15.1346 12.9326 15.5154 13.5808 16.2368H19.6134V3.69067H1.83979V16.2368H3.69033C4.28409 15.5733 5.13154 15.193 6.02179 15.1914H6.02172ZM27.188 3.69053H20.659V16.2367H23.5549C24.15 15.5757 24.9972 15.1983 25.8864 15.1983C26.7755 15.1983 27.623 15.5757 28.2178 16.2367H30.0684V14.6684C30.0684 14.5298 30.1236 14.3968 30.2217 14.2987C30.3197 14.2007 30.4525 14.1457 30.5913 14.1457H32.1594V11.0093H22.227C22.0882 11.0093 21.9554 10.954 21.8573 10.856C21.7593 10.7579 21.7043 10.6251 21.7043 10.4863V5.25891C21.7043 5.1204 21.7593 4.98732 21.8573 4.88927C21.9554 4.79121 22.0882 4.73622 22.227 4.73622H27.9301L27.188 3.69053ZM31.1141 16.2367H32.1594V15.1913H31.1141V16.2367ZM31.6681 9.9636L28.6781 5.78154H22.75V9.9636H31.6681ZM32.1594 18.3275V17.2818H28.8402C28.96 17.6175 29.0218 17.9711 29.0231 18.3275H32.1594ZM25.8864 20.4185C26.441 20.4185 26.973 20.1982 27.365 19.806C27.7572 19.4138 27.9774 18.882 27.9774 18.3274C27.9774 17.7728 27.7572 17.2411 27.365 16.8488C26.973 16.4566 26.441 16.2364 25.8864 16.2364C25.332 16.2364 24.8 16.4566 24.4078 16.8488C24.0158 17.241 23.7953 17.7728 23.7953 18.3274C23.7953 18.882 24.0158 19.4138 24.4078 19.806C24.8 20.1982 25.332 20.4185 25.8864 20.4185ZM22.75 18.3275C22.751 17.9711 22.813 17.6175 22.9329 17.2818H14.2031C14.323 17.6175 14.3849 17.9711 14.386 18.3275H22.75ZM11.2498 20.4185C11.8044 20.4185 12.3361 20.1982 12.7284 19.806C13.1203 19.4138 13.3408 18.882 13.3408 18.3274C13.3408 17.7728 13.1203 17.2411 12.7284 16.8488C12.3362 16.4566 11.8044 16.2364 11.2498 16.2364C10.6952 16.2364 10.1634 16.4566 9.77116 16.8488C9.3789 17.241 9.15872 17.7728 9.15872 18.3274C9.15872 18.882 9.37895 19.4138 9.77116 19.806C10.1634 20.1983 10.6951 20.4185 11.2498 20.4185ZM6.02207 20.4185C6.57667 20.4185 7.10867 20.1982 7.50067 19.806C7.89288 19.4138 8.11312 18.882 8.11312 18.3274C8.11312 17.7728 7.89289 17.2411 7.50067 16.8488C7.10872 16.4566 6.5767 16.2364 6.02207 16.2364C5.46745 16.2364 4.93573 16.4566 4.54347 16.8488C4.15152 17.241 3.93102 17.7728 3.93102 18.3274C3.93102 18.882 4.15151 19.4138 4.54347 19.806C4.93568 20.1982 5.46745 20.4185 6.02207 20.4185ZM2.88596 18.3275H2.8857C2.88674 17.9711 2.94873 17.6175 3.06858 17.2818H1.84006V18.3272L2.88596 18.3275Z" fill="#249C6B"/>
  <path d="M23.796 12.0543H21.705V13.0996H23.796V12.0543Z" fill="#249C6B"/>
  <path d="M13.8636 9.96314H10.2043C9.97005 9.97533 9.7563 9.83007 9.6816 9.60776L8.63623 6.47139V6.47113C8.58357 6.31186 8.61081 6.13676 8.70938 6.00084C8.81211 5.85584 8.98149 5.77335 9.15892 5.78113H14.909C15.0774 5.78191 15.2351 5.86362 15.3326 6.00084C15.4312 6.13677 15.4584 6.31186 15.4058 6.47113L14.3604 9.6075L14.3602 9.60776C14.2883 9.82072 14.0883 9.96366 13.8637 9.96314H13.8636ZM9.88547 6.82677L10.5807 8.91777H13.4873L14.1825 6.82677H9.88547Z" fill="#249C6B"/>
  <path d="M8.08763 6.1368L9.53561 10.4859H14.3867V11.5313L9.15922 11.5315C8.92499 11.5437 8.71124 11.3984 8.63653 11.1759L7.21451 6.82679H6.02258V5.78116H7.5909C7.81554 5.78064 8.01551 5.92383 8.08763 6.1368Z" fill="#249C6B"/>
  <path d="M13.8636 12.0543H12.8183V13.0996H13.8636V12.0543Z" fill="#249C6B"/>
  <path d="M11.2499 12.0543H10.2045V13.0996H11.2499V12.0543Z" fill="#249C6B"/>
</svg>