<svg xmlns="http://www.w3.org/2000/svg" width="32" height="32" viewBox="0 0 32 32" fill="none">
<g id="Group">
<path id="Vector" d="M11.8177 29.6004C12.2335 29.6004 12.6325 29.4351 12.9266 29.141C13.2205 28.8468 13.3858 28.4481 13.3858 28.032C13.3858 27.6162 13.2205 27.2172 12.9266 26.9231C12.6325 26.629 12.2335 26.4637 11.8177 26.4637C11.4016 26.4637 11.0029 26.629 10.7088 26.9231C10.4146 27.2173 10.2494 27.6163 10.2494 28.032C10.2494 28.4481 10.4146 28.8469 10.7088 29.141C11.0029 29.4351 11.4017 29.6004 11.8177 29.6004ZM11.8177 27.5094C12.0291 27.5094 12.2198 27.6367 12.3007 27.8321C12.3814 28.0274 12.3368 28.2523 12.1873 28.4017C12.0377 28.5511 11.813 28.596 11.6177 28.5151C11.4221 28.4341 11.2948 28.2435 11.2948 28.0321C11.2948 27.7433 11.529 27.5094 11.8177 27.5094Z" fill="#249C6B"/>
<path id="Vector_2" d="M24.8865 29.6004C25.3023 29.6004 25.7013 29.4351 25.9954 29.141C26.2893 28.8468 26.4545 28.4481 26.4545 28.032C26.4545 27.6162 26.2893 27.2172 25.9954 26.9231C25.7012 26.629 25.3023 26.4637 24.8865 26.4637C24.4704 26.4637 24.0715 26.629 23.7776 26.9231C23.4834 27.2173 23.3182 27.6163 23.3182 28.032C23.3182 28.4481 23.4834 28.8469 23.7776 29.141C24.0715 29.4351 24.4705 29.6004 24.8865 29.6004ZM24.8865 27.5094C25.0979 27.5094 25.2886 27.6367 25.3695 27.8321C25.4502 28.0274 25.4055 28.2523 25.2561 28.4017C25.1065 28.5511 24.8818 28.596 24.6862 28.5151C24.4909 28.4341 24.3635 28.2435 24.3635 28.0321C24.3635 27.7433 24.5978 27.5094 24.8865 27.5094Z" fill="#249C6B"/>
<path id="Vector_3" d="M31.3325 6.13439C31.0345 5.76734 30.587 5.55411 30.1144 5.55411H8.47258L7.59967 1.56011C7.52341 1.2107 7.3299 0.897855 7.0513 0.673449C6.77271 0.449069 6.42563 0.326629 6.06789 0.32637H1.88583C1.32553 0.32637 0.807789 0.625457 0.527621 1.11056C0.247466 1.5959 0.247466 2.19358 0.527621 2.67888C0.807776 3.16421 1.32556 3.46307 1.88583 3.46307H4.80797L5.2889 5.66384C5.31536 5.80184 5.39629 5.92323 5.51328 6.00106C5.63026 6.07862 5.77371 6.10611 5.9112 6.0768C6.19239 6.01428 6.37008 5.73621 6.30834 5.45476L5.73844 2.84108C5.68604 2.59568 5.46659 2.4224 5.21575 2.42811H1.88581C1.59424 2.42811 1.35793 2.19154 1.35793 1.89997C1.35793 1.60841 1.59424 1.3721 1.88581 1.3721H6.06787C6.31871 1.36639 6.53816 1.53992 6.59056 1.78506L10.2499 18.5135C10.2815 18.6662 10.2434 18.8255 10.1453 18.9472L8.47769 21.0382C8.27587 21.2869 8.16355 21.5961 8.15888 21.9165C8.15888 22.2908 8.30752 22.6499 8.57237 22.9144C8.83695 23.1793 9.19596 23.3279 9.57025 23.3279H24.8869C25.1756 23.3279 25.4095 23.0939 25.4095 22.8052C25.4095 22.5165 25.1756 22.2823 24.8869 22.2823H9.57025C9.43069 22.2794 9.30437 22.1985 9.24367 22.0727C9.18297 21.9469 9.19827 21.7974 9.28284 21.6864L10.9505 19.5954H10.9502C11.0574 19.4587 11.1404 19.3052 11.1961 19.1407H27.9245H27.9243C28.2851 19.141 28.635 19.017 28.9149 18.7892C29.1948 18.5617 29.3878 18.2445 29.4612 17.8912L31.6412 7.43619V7.43645C31.7377 6.9781 31.6246 6.50079 31.3328 6.13476L31.3325 6.13439ZM28.4467 17.6818C28.3964 17.9292 28.1764 18.1051 27.924 18.1002H11.1956L8.68129 6.59928H30.1139C30.2721 6.59876 30.4221 6.66984 30.5217 6.7928C30.6195 6.91445 30.6579 7.07373 30.6262 7.22677L28.4467 17.6818Z" fill="#249C6B"/>
<path id="Vector_4" d="M19.659 8.16774C19.2432 8.16774 18.8442 8.33298 18.5501 8.62714C18.2562 8.9213 18.0909 9.32002 18.0909 9.73605V14.9635C18.0909 15.5238 18.3898 16.0415 18.8749 16.3217C19.3602 16.6019 19.9581 16.6019 20.4432 16.3217C20.9285 16.0415 21.2274 15.5238 21.2274 14.9635V9.73605C21.2274 9.31998 21.0621 8.92125 20.768 8.62714C20.4738 8.33298 20.075 8.16774 19.659 8.16774ZM20.1817 14.9638H20.1819C20.1819 15.2525 19.9477 15.4864 19.659 15.4864C19.3703 15.4864 19.1363 15.2525 19.1363 14.9638V9.73632C19.1363 9.44761 19.3703 9.21363 19.659 9.21363C19.9477 9.21363 20.1819 9.44761 20.1819 9.73632L20.1817 14.9638Z" fill="#249C6B"/>
<path id="Vector_5" d="M24.3638 8.16774C23.948 8.16774 23.549 8.33298 23.2549 8.62714C22.961 8.9213 22.7958 9.32002 22.7958 9.73605V14.9635C22.7958 15.5238 23.0946 16.0415 23.58 16.3217C24.065 16.6019 24.663 16.6019 25.148 16.3217C25.6334 16.0415 25.9322 15.5238 25.9322 14.9635V9.73605C25.9322 9.31998 25.767 8.92125 25.4728 8.62714C25.1789 8.33298 24.7799 8.16774 24.3638 8.16774ZM24.8865 14.9638H24.8868C24.8868 15.2525 24.6525 15.4864 24.3638 15.4864C24.0751 15.4864 23.8411 15.2525 23.8411 14.9638V9.73632C23.8411 9.44761 24.0751 9.21363 24.3638 9.21363C24.6525 9.21363 24.8868 9.44761 24.8868 9.73632L24.8865 14.9638Z" fill="#249C6B"/>
<path id="Vector_6" d="M14.9541 8.16774C14.5383 8.16774 14.1393 8.33298 13.8452 8.62714C13.551 8.9213 13.3858 9.32002 13.3858 9.73605V14.9635C13.3858 15.5238 13.6849 16.0415 14.17 16.3217C14.6553 16.6019 15.253 16.6019 15.7383 16.3217C16.2236 16.0415 16.5225 15.5238 16.5225 14.9635V9.73605C16.5225 9.31998 16.3573 8.92125 16.0631 8.62714C15.7689 8.33298 15.3702 8.16774 14.9542 8.16774H14.9541ZM15.4768 14.9638C15.4768 15.2525 15.2428 15.4864 14.9541 15.4864C14.6654 15.4864 14.4314 15.2525 14.4314 14.9638V9.73632C14.4314 9.44761 14.6654 9.21363 14.9541 9.21363C15.2428 9.21363 15.4768 9.44761 15.4768 9.73632V14.9638Z" fill="#249C6B"/>
<path id="Vector_7" d="M29.0688 22.2817H26.9778C26.6891 22.2817 26.4548 22.516 26.4548 22.8047C26.4548 23.0934 26.6891 23.3274 26.9778 23.3274H29.0688C29.3575 23.3274 29.5915 23.5614 29.5915 23.8501C29.5915 24.1388 29.3575 24.3728 29.0688 24.3728H9.5699C8.9188 24.3715 8.2947 24.1121 7.83423 23.6516C7.37377 23.1912 7.11439 22.5671 7.11313 21.916C7.11054 21.3596 7.29471 20.8185 7.63582 20.379L8.98964 18.6854C9.08925 18.5622 9.12764 18.4008 9.09418 18.2462L6.76817 7.5349C6.70747 7.24618 6.4242 7.06123 6.1355 7.12193C5.84678 7.18237 5.66183 7.46563 5.72253 7.75434L8.01222 18.2093L6.81511 19.7097C6.27167 20.3753 5.99181 21.2176 6.02886 22.076C6.06622 22.9346 6.4177 23.7496 7.01665 24.3657C7.61561 24.982 8.42002 25.3566 9.27732 25.4181C8.57614 26.0982 8.17644 27.0308 8.16655 28.0074C8.15669 28.9843 8.53801 29.9243 9.22513 30.6185C9.91257 31.3126 10.8487 31.7033 11.8256 31.7033C12.8025 31.7033 13.7387 31.3126 14.4261 30.6185C15.1132 29.9243 15.4945 28.9843 15.4846 28.0074C15.4748 27.0308 15.0751 26.0982 14.3739 25.4181H22.33C21.6319 26.0995 21.2351 27.0315 21.2271 28.0071C21.2193 28.9827 21.6014 29.921 22.2885 30.6136C22.9757 31.3062 23.9108 31.6955 24.8864 31.6955C25.862 31.6955 26.7971 31.3062 27.484 30.6136C28.1712 29.921 28.5533 28.9827 28.5454 28.0071C28.5376 27.0315 28.1405 26.0995 27.4425 25.4181H29.0684C29.6284 25.4181 30.1462 25.1192 30.4263 24.6339C30.7065 24.1485 30.7065 23.5509 30.4263 23.0656C30.1462 22.5805 29.6284 22.2814 29.0684 22.2814L29.0688 22.2817ZM14.4315 28.0321C14.4315 28.7253 14.156 29.3901 13.666 29.8803C13.1758 30.3706 12.5109 30.6458 11.8178 30.6458C11.1245 30.6458 10.4596 30.3706 9.96959 29.8803C9.47933 29.3901 9.20413 28.7252 9.20413 28.0321C9.20413 27.339 9.47935 26.6742 9.96959 26.1839C10.4596 25.6939 11.1245 25.4184 11.8178 25.4184C12.511 25.4184 13.1758 25.6939 13.666 26.1839C14.156 26.6742 14.4315 27.339 14.4315 28.0321ZM27.5002 28.0321C27.5002 28.7253 27.2248 29.3901 26.7348 29.8803C26.2445 30.3706 25.5796 30.6458 24.8866 30.6458C24.1932 30.6458 23.5284 30.3706 23.0383 29.8803C22.5481 29.3901 22.2726 28.7252 22.2726 28.0321C22.2726 27.339 22.5481 26.6742 23.0383 26.1839C23.5284 25.6939 24.1932 25.4184 24.8866 25.4184C25.5797 25.4184 26.2445 25.6939 26.7348 26.1839C27.2248 26.6742 27.5002 27.339 27.5002 28.0321Z" fill="#249C6B"/>
</g>
</svg>