<svg xmlns="http://www.w3.org/2000/svg" width="28" height="32" viewBox="0 0 28 32" fill="none">
  <path d="M26.5461 26.455C26.6849 26.455 26.8177 26.4 26.9158 26.302C27.0138 26.2039 27.0691 26.0711 27.0691 25.9323V16.5225C27.068 16.3114 26.9401 16.1218 26.7448 16.0416C26.5503 15.9597 26.3254 16.003 26.1752 16.1513L24.9781 17.3536L23.781 16.1513C23.6827 16.0525 23.5491 15.9967 23.4098 15.9967C23.2705 15.9967 23.1366 16.0525 23.0386 16.1513L21.8415 17.3536L20.7961 16.3083V0.840258C20.7951 0.629106 20.6672 0.439483 20.4719 0.35933C20.2773 0.277358 20.0524 0.32068 19.9022 0.469053L18.7051 1.67134L17.508 0.469053C17.4097 0.369962 17.2761 0.314453 17.1368 0.314453C16.9975 0.314453 16.8639 0.369964 16.7656 0.469053L15.5685 1.67134L14.3714 0.469053C14.2733 0.369962 14.1398 0.314453 14.0005 0.314453C13.8609 0.314453 13.7273 0.369964 13.6293 0.469053L12.4322 1.67134L11.2351 0.469053C11.137 0.369962 11.0034 0.314453 10.8639 0.314453C10.7246 0.314453 10.591 0.369964 10.4927 0.469053L9.29555 1.67134L8.09844 0.469053H8.0987C8.00039 0.369962 7.8668 0.314453 7.72751 0.314453C7.58795 0.314453 7.45436 0.369964 7.35631 0.469053L6.1592 1.67134L4.9621 0.469053C4.86404 0.369962 4.73045 0.314453 4.5909 0.314453C4.4516 0.314453 4.31801 0.369964 4.21996 0.469053L3.02286 1.67134L1.82575 0.469053C1.6753 0.320675 1.45066 0.277358 1.25585 0.35933C1.06078 0.439483 0.932899 0.629106 0.931863 0.840258V5.54501C0.931863 5.83372 1.16584 6.0677 1.45455 6.0677C1.74327 6.0677 1.97724 5.83372 1.97724 5.54501V2.09992L2.65166 2.77952C2.74972 2.87861 2.88331 2.93412 3.02286 2.93412C3.16216 2.93412 3.29575 2.87861 3.3938 2.77952L4.59091 1.57723L5.78801 2.77952C5.88633 2.87861 6.01992 2.93412 6.15921 2.93412C6.29851 2.93412 6.4321 2.87861 6.53041 2.77952L7.72751 1.57723L8.92462 2.77952C9.02267 2.87861 9.15626 2.93412 9.29556 2.93412C9.43512 2.93412 9.56871 2.87861 9.66676 2.77952L10.8639 1.57723L12.061 2.77952C12.159 2.87861 12.2929 2.93412 12.4322 2.93412C12.5715 2.93412 12.7051 2.87861 12.8034 2.77952L14.0005 1.57723L15.1976 2.77952C15.2956 2.87861 15.4292 2.93412 15.5685 2.93412C15.7081 2.93412 15.8417 2.87861 15.9397 2.77952L17.1368 1.57723L18.3339 2.77952C18.432 2.87861 18.5656 2.93412 18.7051 2.93412C18.8444 2.93412 18.978 2.87861 19.0763 2.77952L19.7505 2.09992V28.0236C19.7518 29.0077 20.1494 29.9499 20.8534 30.6373H4.59052C3.89737 30.6373 3.23258 30.362 2.7423 29.8718C2.2523 29.3815 1.97684 28.7167 1.97684 28.0236V7.63621C1.97684 7.34749 1.74286 7.11352 1.45415 7.11352C1.16543 7.11352 0.931458 7.34749 0.931458 7.63621V28.0236C0.931458 28.994 1.31693 29.925 2.00305 30.6111C2.68943 31.2975 3.62018 31.683 4.59057 31.683H23.4094C24.3798 31.683 25.3106 31.2975 25.997 30.6111C26.6831 29.925 27.0688 28.994 27.0688 28.0236C27.0688 27.7349 26.8346 27.5009 26.5459 27.5009C26.2572 27.5009 26.0232 27.7349 26.0232 28.0236C26.0232 28.9574 25.5251 29.8202 24.7163 30.2871C23.9075 30.754 22.9111 30.754 22.1026 30.2871C21.2938 29.8202 20.7958 28.9575 20.7958 28.0236V17.7831L21.4702 18.4627L21.4699 18.4624C21.5682 18.5615 21.7018 18.617 21.8411 18.617C21.9807 18.617 22.1143 18.5615 22.2123 18.4624L23.4094 17.2601L24.6065 18.4624C24.7046 18.5615 24.8382 18.617 24.9777 18.617C25.117 18.617 25.2506 18.5615 25.3487 18.4624L26.0231 17.7831V25.9325C26.0231 26.0712 26.0781 26.204 26.1761 26.3021C26.2742 26.4002 26.4073 26.4552 26.5458 26.4552L26.5461 26.455Z" fill="#249C6B"/>
  <path d="M10.8637 12.8636H9.29534C9.00662 12.8636 8.77264 13.0976 8.77264 13.3863C8.77264 13.675 9.00662 13.9093 9.29534 13.9093H10.3407V14.9546H10.341C10.341 15.2434 10.5749 15.4773 10.8637 15.4773C11.1524 15.4773 11.3863 15.2434 11.3863 14.9546V13.8361C12.0413 13.6581 12.569 13.1738 12.8021 12.5368C13.0353 11.8997 12.945 11.1889 12.5596 10.6305C12.1744 10.072 11.5422 9.7353 10.8636 9.7272C10.4901 9.7272 10.1451 9.52798 9.95832 9.20451C9.77155 8.88078 9.77155 8.48234 9.95832 8.15888C10.1451 7.83541 10.4901 7.63619 10.8636 7.63619H12.432C12.7207 7.63619 12.9546 7.40221 12.9546 7.1135C12.9546 6.82478 12.7207 6.59055 12.432 6.59055H11.3863V5.54518C11.3863 5.25647 11.1523 5.02249 10.8636 5.02249C10.5749 5.02249 10.3409 5.25647 10.3409 5.54518V6.66399V6.66374C9.68622 6.84168 9.15831 7.32599 8.92516 7.96304C8.69201 8.6001 8.78249 9.31089 9.1677 9.86936C9.5529 10.4279 10.1853 10.7645 10.8636 10.7726C11.2372 10.7726 11.5824 10.9718 11.7692 11.2953C11.956 11.619 11.956 12.0175 11.7692 12.3409C11.5825 12.6644 11.2372 12.8636 10.8637 12.8636Z" fill="#249C6B"/>
  <path d="M3.54498 18.0911C3.54498 18.2296 3.59998 18.3627 3.69803 18.4608C3.79609 18.5586 3.92916 18.6138 4.06767 18.6138H12.9542C13.2429 18.6138 13.4768 18.3798 13.4768 18.0911C13.4768 17.8024 13.2429 17.5682 12.9542 17.5682H4.06767C3.77896 17.5682 3.54498 17.8024 3.54498 18.0911Z" fill="#249C6B"/>
  <path d="M15.0452 18.6138H17.6589C17.9476 18.6138 18.1818 18.3798 18.1818 18.0911C18.1818 17.8023 17.9476 17.5681 17.6589 17.5681H15.0452C14.7565 17.5681 14.5225 17.8023 14.5225 18.0911C14.5225 18.3798 14.7565 18.6138 15.0452 18.6138Z" fill="#249C6B"/>
  <path d="M4.06761 21.7501H12.9541C13.2428 21.7501 13.4768 21.5161 13.4768 21.2274C13.4768 20.9387 13.2428 20.7047 12.9541 20.7047H4.06761C3.7789 20.7047 3.54492 20.9387 3.54492 21.2274C3.54492 21.5161 3.7789 21.7501 4.06761 21.7501Z" fill="#249C6B"/>
  <path d="M15.0452 21.7501H17.6589C17.9476 21.7501 18.1818 21.5161 18.1818 21.2274C18.1818 20.9387 17.9476 20.7047 17.6589 20.7047H15.0452C14.7565 20.7047 14.5225 20.9387 14.5225 21.2274C14.5225 21.5161 14.7565 21.7501 15.0452 21.7501Z" fill="#249C6B"/>
  <path d="M15.0452 24.8865H17.6589C17.9476 24.8865 18.1818 24.6523 18.1818 24.3635C18.1818 24.0748 17.9476 23.8409 17.6589 23.8409H15.0452C14.7565 23.8409 14.5225 24.0748 14.5225 24.3635C14.5225 24.6523 14.7565 24.8865 15.0452 24.8865Z" fill="#249C6B"/>
  <path d="M15.0452 28.0229H17.6589C17.9476 28.0229 18.1818 27.7889 18.1818 27.5002C18.1818 27.2115 17.9476 26.9775 17.6589 26.9775H15.0452C14.7565 26.9775 14.5225 27.2115 14.5225 27.5002C14.5225 27.7889 14.7565 28.0229 15.0452 28.0229Z" fill="#249C6B"/>
  <path d="M4.06761 24.8865H12.9541C13.2428 24.8865 13.4768 24.6523 13.4768 24.3635C13.4768 24.0748 13.2428 23.8409 12.9541 23.8409H4.06761C3.7789 23.8409 3.54492 24.0748 3.54492 24.3635C3.54492 24.6523 3.7789 24.8865 4.06761 24.8865Z" fill="#249C6B"/>
  <path d="M4.06761 28.0229H12.9541C13.2428 28.0229 13.4768 27.7889 13.4768 27.5002C13.4768 27.2115 13.2428 26.9775 12.9541 26.9775H4.06761C3.7789 26.9775 3.54492 27.2115 3.54492 27.5002C3.54492 27.7889 3.7789 28.0229 4.06761 28.0229Z" fill="#249C6B"/>
</svg>