<svg id="eO5ixnq63Vd1" xmlns="http://www.w3.org/2000/svg" xmlns:xlink="http://www.w3.org/1999/xlink" viewBox="0 0 223 56.61" shape-rendering="geometricPrecision" text-rendering="geometricPrecision" project-id="a95d68bd21e848b4858f6dd02d429cab" export-id="e839e8b4e51b48dda978120abfd85874" cached="false"><g transform="matrix(1.283191 0 0 1.283191-31.575739-29.4382)"><g><g><g mask="url(#eO5ixnq63Vd56)"><g><g><g><path d="M42.7893,50.4499h10.9618L48.3344,35.204L42.7893,50.4499ZM41.0487,22.9414h14.572L70.2661,59.5367c-4.6888-.0057,0,0-6.323-.0065l-7.1622.0671h-17.0865l-2.5791,7.4612h-12.5081L41.0487,22.9414Z" fill="#249c6b"/></g><g><path d="M95.3038,60.9455c-1.0257.7983-2.2648,1.5651-3.7179,2.3004-1.4528.7352-3.0339,1.3863-4.7433,1.9536-1.7092.5672-3.4614,1.0188-5.2561,1.3552-1.7949.3361-3.5256.5041-5.1923.5041-3.2048,0-6.2175-.4937-9.038-1.4811-2.8201-.9874-5.2774-2.4264-7.3713-4.3171-2.094-1.8907-3.7499-4.2017-4.9678-6.9327-1.2179-2.7312-1.8268-5.8194-1.8268-9.2646c0-3.4873.6089-6.5966,1.8268-9.3276c1.2179-2.7309,2.8738-5.042,4.9678-6.9326c2.0939-1.8907,4.5512-3.3404,7.3713-4.3487c2.8205-1.0085,5.8332-1.5127,9.038-1.5127c3.547,0,6.7627.5253,9.6471,1.5757c2.8846,1.0503,5.4165,2.395,7.5959,4.0335l-5.5766,9.2016c-3.1197-2.4369-6.9014-3.6554-11.3458-3.6554-1.5383,0-2.97.2415-4.2947.7247s-2.4678,1.187-3.4292,2.1114c-.9617.9243-1.7094,2.0694-2.2434,3.4348-.5344,1.3656-.8013,2.9307-.8013,4.6953c0,3.4874,1.036,6.1658,3.1087,8.0355c2.0724,1.8697,4.7969,2.8047,8.1727,2.8047c1.1112,0,2.265-.126,3.4614-.3782c1.1965-.2522,2.3503-.6092,3.4615-1.0715v-4.1468h-9.615v-9.0128h20.7683v19.6513Z" fill="#4e4f53"/></g><g><path d="M114.374,37.3291L113,33.5443c-.101-.2402-.21-.5235-.325-.8488-.116-.3253-.231-.6786-.346-1.0577-.103.3856-.211.7432-.326,1.0717s-.224.6139-.326.8541l-1.363,3.7655h4.06Zm5.464,5.2832h-2.666c-.299,0-.539-.0646-.723-.195-.182-.1292-.322-.2951-.417-.4976l-.874-2.4095h-5.638l-.874,2.4095c-.075.1777-.209.3371-.402.4793-.195.1422-.433.2133-.718.2133h-2.686l5.739-13.8202h3.52l5.739,13.8202Z" fill="#4e4f53"/></g><g><path d="M110.643,37.1079h3.401l-1.268-3.493c-.099-.2337-.209-.5202-.326-.8509-.037-.1034-.074-.21-.111-.3199-.037.1142-.074.2251-.111.3328-.117.3339-.227.6237-.331.8671l-1.254,3.4639Zm4.061.4416h-4.719l1.468-4.0574c.104-.2466.212-.5278.325-.8519.112-.32.219-.6754.321-1.0556l.216-.8089.242.8024c.113.3748.227.7249.342,1.048.114.3199.221.6.322.8369l1.483,4.0865ZM109.35,39.289h5.977l.929,2.5592c.071.1486.186.2865.336.3931.143.1012.332.1497.579.1497h2.321l-5.555-13.3785h-3.197L105.185,42.391h2.341c.232,0,.418-.0538.571-.1658.161-.1185.269-.2456.328-.3867l.925-2.5495Zm10.833,3.5436h-3.012c-.35,0-.641-.0807-.865-.2401-.215-.153-.38-.349-.491-.5849l-.827-2.277h-5.298l-.82,2.2598c-.094.2229-.255.4146-.48.5816-.237.1723-.527.2606-.864.2606h-3.032l5.923-14.2617h3.844l.059.1411l5.863,14.1206Z" fill="#4e4f53"/></g><g><path d="M132.161,39.0363c.081,0,.162.014.244.0431.08.028.159.0775.233.1465l1.365,1.3377c-.598.7271-1.345,1.2753-2.244,1.6458-.899.3695-1.963.5547-3.19.5547-1.127,0-2.136-.1788-3.028-.5364-.892-.3565-1.648-.8498-2.269-1.4788-.62-.6301-1.097-1.3755-1.429-2.2393-.333-.8627-.499-1.7998-.499-2.8123c0-1.0308.18-1.9775.539-2.8403.36-.8638.866-1.6081,1.516-2.2338.652-.6269,1.432-1.1138,2.341-1.4606.908-.3479,1.909-.5224,3.002-.5224.556,0,1.079.0463,1.571.1379s.952.2176,1.379.3791.821.3555,1.181.5838c.359.2273.678.4739.956.74l-1.16,1.4508c-.075.0884-.163.1691-.264.2424-.102.0721-.244.1088-.428.1088-.122,0-.238-.0259-.345-.0765-.109-.0507-.225-.112-.347-.1842-.121-.0732-.255-.1519-.402-.238-.146-.0851-.319-.1638-.519-.237-.2-.0722-.434-.1336-.701-.1842-.268-.0506-.583-.0765-.942-.0765-.57,0-1.091.0981-1.562.2941s-.878.4825-1.221.8584c-.342.377-.607.838-.793,1.3852-.187.5471-.281,1.1708-.281,1.873c0,.7087.104,1.3378.311,1.8882.207.5493.489,1.0135.845,1.3894s.772.6624,1.246.8585c.475.196.984.294,1.527.294.312,0,.596-.014.854-.0431.257-.028.499-.0754.723-.1422.223-.0667.433-.1551.631-.266.196-.1099.396-.2509.599-.4212.082-.0635.17-.1163.265-.1572s.194-.0614.296-.0614Z" fill="#4e4f53"/></g><g><path d="M128.742,28.8606c-1.056,0-2.036.1702-2.912.5052-.875.3339-1.635.8078-2.261,1.411-.626.6021-1.12,1.3291-1.465,2.1595-.348.8348-.524,1.7632-.524,2.7606c0,.9823.163,1.9032.486,2.738.317.8293.782,1.5574,1.38,2.1638.595.6043,1.331,1.0836,2.189,1.4261.858.3436,1.845.5181,2.933.5181c1.188,0,2.229-.1799,3.095-.5353.796-.3285,1.476-.81,2.026-1.4315l-1.222-1.1988c-.046-.0431-.096-.0743-.145-.0915-.126-.042-.242-.0356-.358.0118-.074.0313-.145.0743-.212.1271-.21.1745-.423.3253-.63.4405-.21.1175-.439.2144-.68.2865-.238.0711-.496.1218-.768.1508-.262.0302-.559.0453-.881.0453-.574,0-1.12-.1056-1.623-.3134s-.951-.516-1.328-.9134c-.375-.3964-.674-.8875-.89-1.4627-.215-.573-.325-1.2322-.325-1.9614c0-.7206.098-1.3733.293-1.9398.194-.5709.476-1.062.837-1.4606.365-.4007.804-.7097,1.306-.9176.499-.2079,1.057-.3135,1.658-.3135.372,0,.705.027.989.0808.28.0539.529.1185.739.195.216.0796.405.1647.56.2552l.404.2402c.113.0668.222.125.325.1724.189.0872.425.0571.523-.0108.083-.0603.16-.1293.223-.2036l1.032-1.2914c-.231-.2057-.492-.4007-.777-.5806-.34-.2165-.723-.405-1.136-.5611-.409-.1552-.858-.279-1.336-.3673-.477-.0883-.99-.1336-1.525-.1336Zm-.174,14.1239c-1.153,0-2.203-.1863-3.12-.5547-.919-.3673-1.709-.8821-2.351-1.5316-.641-.6517-1.138-1.4304-1.477-2.3147-.34-.8821-.513-1.8537-.513-2.8866c0-1.0523.187-2.0346.555-2.92.369-.8853.896-1.6619,1.567-2.3082.671-.6452,1.486-1.1535,2.421-1.5112.933-.3565,1.973-.5385,3.092-.5385.566,0,1.11.0485,1.617.1422.508.0948.986.2262,1.421.391.445.168.858.3726,1.225.6064.371.2337.705.4922.994.7679l.141.1347-1.282,1.6016c-.091.1077-.194.2025-.309.2854-.241.1745-.673.2208-1.024.055-.114-.0539-.237-.1185-.366-.195l-.387-.2283c-.146-.0851-.306-.1584-.495-.2273-.185-.0668-.408-.126-.662-.1734-.253-.0485-.553-.0722-.894-.0722-.534,0-1.027.0927-1.466.2747-.436.1809-.818.4502-1.137.8003-.321.3533-.572.7938-.748,1.3086-.179.5235-.269,1.131-.269,1.8063c0,.6796.099,1.2904.297,1.8149.196.5213.466.964.799,1.3162.332.3511.724.6215,1.165.8035.443.182.923.2747,1.431.2747.303,0,.581-.014.825-.041.243-.0269.471-.071.68-.1335.206-.0614.401-.1444.58-.2445.18-.1013.37-.2348.564-.3964.106-.0829.212-.1454.323-.1939.228-.098.482-.1109.724-.0237.111.0377.217.1045.316.1961l1.508,1.4788-.122.1497c-.62.7529-1.405,1.3292-2.337,1.7126-.926.3813-2.031.5741-3.286.5741Z" fill="#4e4f53"/></g><g><path d="M146.802,39.0363c.081,0,.162.014.244.0431.081.028.16.0775.233.1465l1.365,1.3377c-.597.7271-1.345,1.2753-2.244,1.6458-.899.3695-1.963.5547-3.19.5547-1.126,0-2.135-.1788-3.027-.5364-.892-.3565-1.649-.8498-2.269-1.4788-.621-.6301-1.098-1.3755-1.43-2.2393-.332-.8627-.499-1.7998-.499-2.8123c0-1.0308.18-1.9775.54-2.8403.359-.8638.865-1.6081,1.516-2.2338.651-.6269,1.431-1.1138,2.341-1.4606.908-.3479,1.908-.5224,3.001-.5224.556,0,1.08.0463,1.572.1379s.952.2176,1.378.3791c.428.1616.822.3555,1.181.5838.359.2273.678.4739.957.74l-1.16,1.4508c-.075.0884-.163.1691-.265.2424-.102.0721-.244.1088-.427.1088-.123,0-.238-.0259-.346-.0765-.109-.0507-.224-.112-.347-.1842-.121-.0732-.255-.1519-.402-.238-.145-.0851-.319-.1638-.518-.237-.2-.0722-.435-.1336-.702-.1842-.268-.0506-.582-.0765-.941-.0765-.57,0-1.091.0981-1.563.2941-.471.196-.878.4825-1.221.8584-.342.377-.606.838-.792,1.3852-.188.5471-.281,1.1708-.281,1.873c0,.7087.104,1.3378.311,1.8882.206.5493.488,1.0135.844,1.3894s.772.6624,1.247.8585.983.294,1.526.294c.312,0,.596-.014.854-.0431.258-.028.499-.0754.723-.1422.223-.0667.434-.1551.631-.266.197-.1099.397-.2509.6-.4212.082-.0635.17-.1163.264-.1572.095-.0409.195-.0614.296-.0614Z" fill="#4e4f53"/></g><g><path d="M143.383,28.8606c-1.056,0-2.036.1702-2.912.5052-.874.3339-1.635.8078-2.261,1.411-.626.6021-1.119,1.3291-1.465,2.1595-.348.8348-.523,1.7632-.523,2.7606c0,.9823.163,1.9032.485,2.738.318.8293.782,1.5574,1.381,2.1638.595.6043,1.331,1.0836,2.188,1.4261.859.3436,1.845.5181,2.934.5181c1.188,0,2.229-.1799,3.094-.5353.796-.3285,1.477-.81,2.027-1.4315l-1.223-1.1988c-.046-.0431-.096-.0743-.144-.0915-.126-.042-.243-.0356-.358.0118-.074.0313-.146.0743-.213.1271-.209.1745-.423.3253-.63.4405-.21.1175-.439.2144-.679.2865-.238.0711-.497.1218-.769.1508-.262.0302-.559.0453-.881.0453-.573,0-1.12-.1056-1.622-.3134-.504-.2079-.951-.516-1.329-.9134-.374-.3964-.674-.8875-.89-1.4627-.215-.573-.324-1.2322-.324-1.9614c0-.7206.098-1.3733.292-1.9398.194-.5709.476-1.062.838-1.4606.365-.4007.804-.7097,1.305-.9176.499-.2079,1.057-.3135,1.658-.3135.372,0,.705.027.989.0808.28.0539.529.1185.74.195.216.0796.404.1647.559.2552l.404.2402c.114.0668.222.125.325.1724.188.0872.425.0571.523-.0108.084-.0603.16-.1293.223-.2036l1.032-1.2914c-.231-.2057-.492-.4007-.776-.5806-.341-.2165-.723-.405-1.137-.5611-.409-.1552-.857-.279-1.336-.3673-.477-.0883-.99-.1336-1.525-.1336Zm-.173,14.1239c-1.153,0-2.204-.1863-3.121-.5547-.919-.3673-1.709-.8821-2.35-1.5316-.641-.6517-1.138-1.4304-1.478-2.3147-.34-.8821-.513-1.8537-.513-2.8866c0-1.0523.187-2.0346.556-2.92.368-.8853.895-1.6619,1.567-2.3082.671-.6452,1.485-1.1535,2.42-1.5112.934-.3565,1.974-.5385,3.092-.5385.566,0,1.11.0485,1.618.1422.507.0948.985.2262,1.421.391.445.168.857.3726,1.225.6064.37.2337.704.4922.993.7679l.141.1347-1.281,1.6016c-.091.1077-.194.2025-.31.2854-.241.1745-.673.2208-1.024.055-.114-.0539-.236-.1185-.366-.195l-.387-.2283c-.145-.0851-.306-.1584-.494-.2273-.185-.0668-.408-.126-.662-.1734-.253-.0485-.554-.0722-.895-.0722-.534,0-1.027.0927-1.466.2747-.436.1809-.818.4502-1.137.8003-.321.3533-.572.7938-.747,1.3086-.18.5235-.27,1.131-.27,1.8063c0,.6796.1,1.2904.297,1.8149.197.5213.466.964.8,1.3162.331.3511.723.6215,1.164.8035.443.182.924.2747,1.431.2747.304,0,.581-.014.825-.041s.471-.071.68-.1335c.206-.0614.401-.1444.58-.2445.181-.1013.37-.2348.564-.3964.107-.0829.213-.1454.324-.1939.226-.098.483-.1109.723-.0237.111.0377.217.1045.317.1961l1.507,1.4788-.122.1497c-.619.7529-1.405,1.3292-2.336,1.7126-.927.3813-2.031.5741-3.286.5741Z" fill="#4e4f53"/></g><g><path d="M162.481,35.6973c0-.6828-.095-1.2979-.285-1.845-.19-.5461-.462-1.0103-.819-1.3895-.356-.3791-.792-.6699-1.307-.8724-.517-.2025-1.102-.3038-1.761-.3038-.664,0-1.256.1013-1.776.3038-.519.2025-.955.4933-1.312.8724-.356.3792-.629.8434-.818,1.3895-.191.5471-.286,1.1622-.286,1.845c0,.6894.095,1.3076.286,1.8548.189.5471.462,1.0103.818,1.3894.357.3792.793.6689,1.312.8682.52.1992,1.112.2983,1.776.2983.659,0,1.244-.0991,1.761-.2983.515-.1993.951-.489,1.307-.8682.357-.3791.629-.8423.819-1.3894.19-.5472.285-1.1654.285-1.8548Zm3.521,0c0,.9996-.185,1.9291-.555,2.7886-.37.8606-.891,1.6081-1.562,2.2436s-1.48,1.1331-2.426,1.4939c-.947.3609-1.997.5407-3.15.5407s-2.205-.1798-3.154-.5407c-.95-.3608-1.762-.8584-2.437-1.4939s-1.197-1.383-1.567-2.2436c-.37-.8595-.554-1.789-.554-2.7886c0-.9984.184-1.9279.554-2.7886.37-.8595.892-1.6059,1.567-2.2381s1.487-1.1288,2.437-1.4897c.949-.3608,2.001-.5407,3.154-.5407s2.203.1821,3.15.5461c.946.363,1.755.8617,2.426,1.4939s1.192,1.3787,1.562,2.2382c.37.8596.555,1.7859.555,2.7789Z" fill="#4e4f53"/></g><g><path d="M158.309,31.507c-.63,0-1.196.0959-1.685.2866-.482.1874-.894.462-1.226.8142-.332.3544-.591.7949-.77,1.3119-.182.5213-.274,1.1191-.274,1.7772c0,.6646.092,1.2656.274,1.7869.179.5159.438.9576.77,1.3119.332.3522.744.6247,1.225.81.488.1863,1.055.2811,1.686.2811.624,0,1.186-.0948,1.67-.2811.479-.1853.889-.4578,1.219-.81.334-.3543.593-.7949.772-1.3119.182-.5213.274-1.1223.274-1.7869c0-.6581-.092-1.2559-.274-1.7772-.179-.517-.439-.9586-.772-1.3119-.33-.3522-.74-.6258-1.221-.8142-.484-.1907-1.045-.2866-1.668-.2866Zm0,8.8214c-.693,0-1.321-.1066-1.866-.3156-.549-.21-1.02-.5224-1.401-.9263-.375-.4007-.666-.8939-.865-1.467-.196-.5654-.297-1.2117-.297-1.9226c0-.7044.101-1.3474.297-1.9129.199-.5741.49-1.0674.865-1.467.381-.4028.851-.7162,1.4-.9306.546-.2133,1.175-.321,1.867-.321.686,0,1.309.1077,1.852.321.546.2154,1.016.5278,1.393.9306.376.3985.667.8918.867,1.467.196.5655.297,1.2085.297,1.9129c0,.7109-.101,1.3572-.297,1.9226-.199.5741-.491,1.0674-.867,1.467-.379.4039-.848.7152-1.394.9263-.542.209-1.165.3156-1.851.3156Zm0-11.4678c-1.119,0-2.149.1767-3.066.5246-.915.3479-1.708.8326-2.358,1.44-.648.6086-1.158,1.3367-1.515,2.165-.357.8304-.537,1.7417-.537,2.7067c0,.9662.18,1.8774.537,2.7068.356.8282.866,1.5585,1.516,2.1703.649.6107,1.441,1.0965,2.357,1.4444.917.3479,1.947.5245,3.066.5245c1.118,0,2.148-.1766,3.059-.5245.913-.3479,1.703-.8337,2.348-1.4444.647-.6118,1.156-1.3421,1.511-2.1703.357-.8294.538-1.7406.538-2.7068c0-.9597-.181-1.8676-.538-2.697-.355-.8283-.864-1.5564-1.511-2.165-.647-.6096-1.436-1.0954-2.348-1.4454-.912-.3512-1.942-.5289-3.059-.5289Zm0,14.1239c-1.18,0-2.271-.1874-3.243-.5568-.977-.3706-1.823-.8897-2.517-1.5435-.693-.6538-1.239-1.4336-1.618-2.3168-.379-.8811-.572-1.8472-.572-2.8705c0-1.0221.193-1.9883.572-2.8704.381-.8843.925-1.662,1.619-2.3115.695-.6505,1.54-1.1686,2.516-1.5391.972-.3695,2.063-.5569,3.243-.5569c1.179,0,2.269.1896,3.24.5633.969.3716,1.812.8908,2.505,1.5424.69.6506,1.232,1.4283,1.612,2.3115.379.881.572,1.8439.572,2.8607c0,1.0233-.193,1.9894-.572,2.8705-.378.8832-.922,1.6619-1.612,2.3168-.69.6527-1.534,1.1719-2.505,1.5435-.971.3694-2.061.5568-3.24.5568Z" fill="#4e4f53"/></g><g><path d="M174.499,35.2891c.468,0,.866-.0549,1.196-.1658.328-.1099.598-.2639.808-.4599.211-.1961.363-.4255.458-.6872.095-.2629.142-.5461.142-.8488c0-.6074-.211-1.0814-.635-1.4228s-1.081-.5127-1.969-.5127h-1.384v4.0972h1.384Zm7.305,7.3232h-3.113c-.577,0-.991-.2025-1.241-.6075l-2.463-4.0121c-.115-.1703-.244-.2952-.387-.3749-.142-.0786-.345-.1185-.61-.1185h-.875v5.113h-3.439v-13.8202h4.823c1.071,0,1.986.1034,2.742.3081.756.2057,1.373.4922,1.852.8584.478.3673.826.8003,1.043,1.3001s.325,1.0426.325,1.6307c0,.4491-.064.8735-.193,1.2709-.129.3986-.319.767-.57,1.1052-.251.3392-.561.6408-.931.9058-.37.266-.795.4847-1.277.6549.224.1077.435.2423.631.4028.196.1616.373.3533.529.5741l3.154,4.8092Z" fill="#4e4f53"/></g><g><path d="M173.351,35.0679h1.148c.439,0,.814-.0517,1.115-.153.294-.098.537-.2358.722-.4082.183-.1701.317-.3726.401-.601.085-.2391.129-.5008.129-.7787c0-.545-.18-.9565-.553-1.2559-.378-.3048-.989-.4588-1.814-.4588h-1.148v3.6556Zm1.148.4416h-1.621v-4.5388h1.621c.942,0,1.656.1906,2.123.5665.476.3834.718.9177.718,1.5898c0,.3253-.052.6344-.155.9187-.106.2941-.28.5537-.514.7734-.236.2186-.536.391-.897.5116-.352.1185-.781.1788-1.275.1788Zm-1.621,1.7686h1.112c.31,0,.549.0495.732.1497.174.098.331.2477.465.4459l2.468,4.0208c.207.3339.546.4965,1.035.4965h2.693l-2.935-4.4731c-.139-.1971-.304-.3759-.483-.5235-.183-.1486-.378-.2746-.584-.3727l-.471-.2272.496-.1756c.456-.1605.865-.3705,1.216-.6225.35-.251.646-.5397.881-.8563.237-.3199.418-.6711.538-1.0437.121-.3727.183-.7788.183-1.2074c0-.558-.103-1.0782-.308-1.5478-.201-.4621-.529-.8703-.974-1.2128-.451-.3458-1.047-.6204-1.767-.8165-.734-.1992-1.634-.2994-2.676-.2994h-4.586v13.3785h2.965v-5.1129Zm9.348,5.5545h-3.536c-.664,0-1.15-.2412-1.445-.7183l-2.463-4.0122c-.089-.1314-.193-.2338-.304-.2962-.071-.0388-.214-.0862-.488-.0862h-.639v5.1129h-3.912v-14.2617h5.06c1.087,0,2.031.1066,2.807.3167.784.2132,1.435.5159,1.937.9004.507.3889.881.8563,1.112,1.3873.227.5224.342,1.0986.342,1.7137c0,.4717-.068.9209-.203,1.3345-.134.4168-.336.8099-.602,1.1664-.262.3555-.593.6775-.981.9554-.273.1971-.576.3695-.907.5159.094.0625.185.1293.273.2015.212.1744.404.3823.571.6182l3.378,5.1517Z" fill="#4e4f53"/></g><g><path d="M194.634,35.6973c0-.6828-.096-1.2989-.285-1.8493-.19-.5504-.464-1.0168-.819-1.3991-.356-.3824-.792-.6765-1.307-.8822-.517-.2057-1.102-.308-1.761-.308h-2.299v8.887h2.299c.659,0,1.244-.1023,1.761-.308.515-.2058.951-.4998,1.307-.8822.355-.3823.629-.8487.819-1.3991.189-.5504.285-1.1697.285-1.8591Zm3.522,0c0,.9996-.185,1.9205-.555,2.7649-.369.8445-.892,1.5747-1.563,2.1909-.671.6171-1.48,1.0975-2.426,1.4422-.947.3447-1.997.517-3.15.517h-5.759v-13.8202h5.759c1.153,0,2.203.1745,3.15.5213.946.3479,1.755.8294,2.426,1.4422.671.614,1.194,1.3421,1.563,2.1865.37.8445.555,1.7622.555,2.7552Z" fill="#4e4f53"/></g><g><path d="M188.399,39.9245h2.063c.623,0,1.184-.0969,1.668-.2897.48-.1917.89-.4686,1.22-.824.335-.3597.595-.8046.773-1.3227.182-.5277.274-1.1309.274-1.7912c0-.6538-.092-1.2537-.274-1.7815-.178-.518-.438-.9629-.773-1.3227-.33-.3554-.74-.6322-1.221-.8239-.483-.1928-1.044-.2898-1.667-.2898h-2.063v8.4455Zm2.063.4416h-2.536v-9.3287h2.536c.687,0,1.311.1099,1.853.3264.547.2176,1.016.5342,1.394.9403.376.4039.667.9015.865,1.4756.196.5719.297,1.2171.297,1.9172c0,.7066-.101,1.355-.297,1.9269-.198.5741-.489,1.0718-.865,1.4757-.378.406-.847.7227-1.393.9403-.543.2165-1.167.3263-1.854.3263ZM184.94,42.391h5.522c1.118,0,2.149-.169,3.063-.5019.913-.3317,1.702-.8013,2.346-1.3937.647-.5935,1.156-1.3065,1.511-2.1165.357-.8143.537-1.7169.537-2.682c0-.9586-.18-1.8579-.537-2.6722-.354-.8089-.862-1.5198-1.509-2.1122-.647-.5903-1.438-1.0599-2.348-1.3937-.916-.3361-1.947-.5063-3.063-.5063h-5.522v13.3785Zm5.522.4416h-5.996v-14.2617h5.996c1.176,0,2.264.1809,3.236.5364.971.3576,1.813.8584,2.505,1.4907.694.6344,1.239,1.3948,1.618,2.2608.379.867.572,1.8213.572,2.8381c0,1.0233-.193,1.9808-.572,2.8478-.38.8671-.924,1.6286-1.617,2.2652-.691.6344-1.534,1.1363-2.506,1.4907-.969.3533-2.059.532-3.236.532Z" fill="#4e4f53"/></g><g><path d="M113.661,53.3186h5.271v5.8335c-.76.5191-1.569.895-2.426,1.1288-.859.2337-1.756.3511-2.692.3511-1.22,0-2.332-.1788-3.332-.5364-1.001-.3565-1.857-.8498-2.569-1.4788-.713-.6301-1.262-1.3755-1.649-2.2393-.387-.8627-.58-1.7998-.58-2.8123c0-1.0308.183-1.9775.55-2.8403.367-.8638.89-1.6081,1.572-2.2339.681-.6268,1.505-1.1137,2.472-1.4605.967-.3479,2.048-.5224,3.241-.5224.617,0,1.197.0474,1.74.1422.542.0948,1.042.2251,1.501.3888.458.1648.876.3608,1.256.5881.38.2283.72.475,1.018.74l-.997,1.4131c-.156.2219-.358.3576-.606.4082-.247.0506-.514-.0065-.798-.1701-.271-.1519-.528-.2833-.768-.3943-.242-.1109-.488-.2003-.739-.2703-.25-.0689-.515-.1196-.793-.1519-.278-.0312-.59-.0474-.936-.0474-.645,0-1.225.1066-1.74.3178-.516.2121-.955.5105-1.318.8961-.362.3867-.642.8498-.84,1.3905-.196.5396-.294,1.1428-.294,1.8063c0,.7335.108,1.3852.326,1.9538.217.5698.523,1.0502.921,1.4423.396.392.871.6904,1.424.8961.552.2057,1.165.3081,1.836.3081.414,0,.789-.0377,1.124-.1131.337-.0765.664-.1778.982-.3038v-2.096h-1.465c-.217,0-.387-.0539-.508-.1616-.122-.1077-.184-.2434-.184-.4082v-1.7642Z" fill="#4e4f53"/></g><g><path d="M113.519,46.7285c-1.158,0-2.22.1701-3.155.5073-.933.3339-1.737.8089-2.392,1.412-.655.6011-1.166,1.327-1.518,2.1575-.354.8315-.533,1.7599-.533,2.7595c0,.979.188,1.8967.562,2.7271.372.8305.908,1.5586,1.593,2.1639.686.6075,1.524,1.089,2.49,1.4337.969.3457,2.061.5213,3.248.5213.908,0,1.792-.1153,2.626-.3426.791-.2154,1.549-.5611,2.255-1.0297v-5.4996h-4.797v1.5435c0,.1034.035.182.11.2477.076.0689.189.1013.345.1013h1.702v2.4633l-.144.057c-.33.1293-.673.2359-1.018.3146-.353.0797-.75.1195-1.181.1195-.7,0-1.347-.1088-1.924-.3242-.583-.2165-1.092-.5364-1.509-.95-.417-.4114-.744-.922-.971-1.5187-.226-.5902-.34-1.272-.34-2.0281c0-.6861.104-1.3173.307-1.8774.207-.5655.505-1.0588.886-1.4648.384-.4072.854-.7282,1.4-.9522.545-.224,1.163-.3371,1.836-.3371.351,0,.675.0172.964.0495.29.0334.57.0873.832.1594.267.0743.528.1691.777.2833.245.1142.507.2477.784.4028.232.1325.438.1788.626.1444.188-.0388.338-.1411.459-.3135l.886-1.2569c-.249-.2079-.531-.4061-.837-.5903-.365-.2186-.773-.4093-1.214-.5676-.446-.1594-.937-.2865-1.459-.3781-.526-.0915-1.096-.1378-1.696-.1378Zm.295,14.1239c-1.245,0-2.394-.1853-3.417-.5515-1.025-.3652-1.916-.8779-2.647-1.5241-.733-.6484-1.307-1.4272-1.704-2.3147-.398-.8853-.599-1.8601-.599-2.8973c0-1.0556.191-2.039.568-2.9222.376-.8875.923-1.6652,1.624-2.3093.703-.6451,1.561-1.1535,2.554-1.509.991-.3565,2.109-.5375,3.326-.5375.629,0,1.228.0496,1.784.1466.549.0958,1.068.2304,1.541.3995.471.1691.907.3738,1.3.6086.392.2359.747.4933,1.053.7658l.143.1271-1.106,1.5672c-.189.2693-.442.4383-.752.5019-.311.0592-.637-.0032-.974-.1982-.262-.1465-.513-.2757-.749-.3834-.224-.1034-.459-.1896-.701-.2575-.236-.0646-.49-.113-.754-.1443-.27-.0301-.575-.0452-.907-.0452-.607,0-1.16.1001-1.646.2984-.48.1981-.896.4814-1.234.8401-.339.363-.608.8057-.794,1.3162-.187.5137-.281,1.0975-.281,1.7352c0,.7054.105,1.3377.312,1.8795.205.5396.498.9985.87,1.3647.369.3661.821.6505,1.34.8433.521.1939,1.109.2919,1.748.2919.394,0,.753-.0355,1.069-.1066.27-.0614.539-.1411.8-.237v-1.7276h-1.228c-.279,0-.505-.0754-.671-.223-.171-.1497-.258-.3404-.258-.5676v-1.9851h5.745v6.1663l-.097.0657c-.778.5321-1.619.9231-2.5,1.1633-.877.238-1.805.3598-2.758.3598Z" fill="#4e4f53"/></g><g><path d="M127.714,53.157c.468,0,.866-.0549,1.195-.1659.329-.1098.599-.2639.809-.4599.211-.196.363-.4254.458-.6872.095-.2628.142-.5461.142-.8487c0-.6075-.212-1.0814-.636-1.4229s-1.08-.5127-1.968-.5127h-1.385v4.0973h1.385Zm7.305,7.3231h-3.114c-.576,0-.99-.2025-1.24-.6075l-2.463-4.0121c-.115-.1702-.245-.2951-.387-.3748-.142-.0787-.345-.1185-.61-.1185h-.876v5.1129h-3.438v-13.8201h4.823c1.071,0,1.986.1034,2.741.308.757.2057,1.374.4922,1.853.8585.478.3673.826.8002,1.043,1.3s.325,1.0426.325,1.6307c0,.4492-.064.8736-.193,1.271-.129.3985-.319.7669-.57,1.1051-.251.3393-.562.6409-.931.9058-.37.2661-.795.4847-1.277.6549.224.1077.434.2423.631.4028.196.1616.373.3533.529.5741l3.154,4.8092Z" fill="#4e4f53"/></g><g><path d="M126.566,52.9358h1.147c.439,0,.815-.0517,1.115-.153.295-.098.538-.2359.723-.4082.183-.1702.317-.3727.4-.601.086-.2392.13-.5009.13-.7788c0-.545-.18-.9564-.554-1.2559-.377-.3048-.989-.4588-1.814-.4588h-1.147v3.6557Zm1.147.4416h-1.621v-4.5389h1.621c.943,0,1.657.1906,2.124.5665.476.3835.718.9177.718,1.5898c0,.3253-.052.6344-.155.9188-.107.294-.28.5536-.514.7734-.236.2186-.537.3909-.897.5115-.352.1185-.781.1789-1.276.1789Zm-1.621,1.7685h1.113c.31,0,.549.0496.731.1498.175.098.332.2477.466.4459l2.468,4.0208c.207.3339.545.4965,1.035.4965h2.692l-2.934-4.4731c-.139-.1972-.304-.376-.483-.5235-.183-.1487-.378-.2747-.584-.3727l-.471-.2273.495-.1756c.457-.1604.866-.3705,1.217-.6225.35-.2509.646-.5396.881-.8563.236-.3199.418-.671.538-1.0437.121-.3727.182-.7787.182-1.2074c0-.5579-.102-1.0782-.307-1.5478-.201-.4621-.529-.8703-.974-1.2128-.452-.3457-1.047-.6204-1.768-.8164-.733-.1993-1.633-.2994-2.676-.2994h-4.585v13.3785h2.964v-5.113Zm9.349,5.5546h-3.536c-.664,0-1.151-.2413-1.445-.7184l-2.464-4.0122c-.089-.1314-.192-.2337-.303-.2962-.071-.0388-.214-.0862-.488-.0862h-.639v5.113h-3.912v-14.2618h5.059c1.088,0,2.032.1067,2.808.3167.783.2133,1.435.5159,1.937.9005.507.3888.881.8562,1.112,1.3873.227.5224.342,1.0986.342,1.7136c0,.4717-.068.9209-.203,1.3345-.134.4169-.336.81-.602,1.1665-.262.3555-.593.6775-.981.9554-.273.1971-.577.3694-.907.5159.093.0625.185.1293.273.2014.212.1745.404.3824.57.6183l3.379,5.1517Z" fill="#4e4f53"/></g><g><path d="M148.684,53.5652c0-.6829-.094-1.2979-.285-1.8451-.189-.5461-.462-1.0103-.819-1.3894-.356-.3792-.792-.67-1.307-.8725-.516-.2024-1.102-.3037-1.761-.3037-.664,0-1.256.1013-1.776.3037-.518.2025-.955.4933-1.312.8725-.356.3791-.629.8433-.818,1.3894-.191.5472-.286,1.1622-.286,1.8451c0,.6893.095,1.3076.286,1.8547.189.5472.462,1.0104.818,1.3895.357.3791.794.6689,1.312.8681.52.1993,1.112.2984,1.776.2984.659,0,1.245-.0991,1.761-.2984.515-.1992.951-.489,1.307-.8681.357-.3791.63-.8423.819-1.3895.191-.5471.285-1.1654.285-1.8547Zm3.521,0c0,.9995-.185,1.9291-.555,2.7886-.369.8606-.89,1.6081-1.562,2.2435-.671.6355-1.48,1.1331-2.426,1.494s-1.997.5407-3.15.5407-2.204-.1799-3.154-.5407-1.762-.8585-2.437-1.494c-.675-.6354-1.197-1.3829-1.567-2.2435-.369-.8595-.554-1.7891-.554-2.7886c0-.9985.185-1.928.554-2.7886.37-.8595.892-1.6059,1.567-2.2382s1.487-1.1288,2.437-1.4896s2.001-.5407,3.154-.5407s2.204.182,3.15.5461c.946.3629,1.755.8616,2.426,1.4939.672.6323,1.193,1.3787,1.562,2.2382.37.8595.555,1.7858.555,2.7789Z" fill="#4e4f53"/></g><g><path d="M144.512,49.3749c-.63,0-1.196.0958-1.685.2865-.482.1874-.894.4621-1.226.8143-.332.3543-.591.7949-.77,1.3119-.182.5213-.274,1.1191-.274,1.7772c0,.6645.092,1.2655.274,1.7869.179.5159.438.9575.77,1.3119.332.3522.744.6247,1.225.8099.488.1864,1.055.2811,1.686.2811.624,0,1.187-.0947,1.671-.2811.478-.1852.888-.4577,1.219-.8099.334-.3544.592-.7949.771-1.3119.182-.5214.274-1.1224.274-1.7869c0-.6581-.092-1.2559-.274-1.7772-.179-.517-.439-.9586-.771-1.3119-.331-.3522-.741-.6258-1.222-.8143-.484-.1907-1.045-.2865-1.668-.2865Zm0,8.8214c-.693,0-1.321-.1067-1.866-.3156-.549-.2101-1.02-.5224-1.4-.9263-.376-.4007-.667-.894-.866-1.467-.196-.5655-.297-1.2118-.297-1.9226c0-.7044.101-1.3475.297-1.913.2-.574.49-1.0674.866-1.4669.38-.4029.85-.7163,1.399-.9307.546-.2132,1.175-.3209,1.867-.3209.686,0,1.309.1077,1.852.3209.547.2155,1.016.5278,1.393.9307.376.3985.667.8918.867,1.4669.196.5655.297,1.2086.297,1.913c0,.7108-.101,1.3571-.297,1.9226-.199.574-.491,1.0674-.867,1.467-.379.4039-.848.7152-1.394.9263-.542.2089-1.165.3156-1.851.3156Zm0-11.4678c-1.119,0-2.149.1766-3.065.5245s-1.709.8326-2.359,1.4401c-.648.6085-1.157,1.3367-1.514,2.1649-.357.8305-.538,1.7417-.538,2.7068c0,.9661.181,1.8773.538,2.7067.355.8283.865,1.5586,1.516,2.1703.648.6107,1.44,1.0965,2.357,1.4444.916.3479,1.946.5245,3.065.5245c1.118,0,2.148-.1766,3.059-.5245.913-.3479,1.704-.8337,2.348-1.4444.647-.6117,1.156-1.342,1.512-2.1703.357-.8294.537-1.7406.537-2.7067c0-.9597-.18-1.8677-.537-2.6971-.356-.8282-.865-1.5564-1.512-2.1649-.647-.6096-1.436-1.0954-2.348-1.4454-.912-.3512-1.942-.5289-3.059-.5289Zm0,14.1239c-1.18,0-2.27-.1875-3.243-.5569-.977-.3705-1.822-.8897-2.517-1.5435-.693-.6538-1.238-1.4336-1.617-2.3168-.379-.881-.572-1.8472-.572-2.8704c0-1.0222.193-1.9883.572-2.8705.38-.8843.924-1.6619,1.618-2.3114.695-.6506,1.54-1.1687,2.516-1.5392.973-.3694,2.063-.5568,3.243-.5568s2.269.1896,3.24.5633c.969.3716,1.813.8908,2.505,1.5424.691.6506,1.232,1.4282,1.613,2.3114.379.8811.572,1.844.572,2.8608c0,1.0232-.193,1.9894-.572,2.8704-.379.8832-.922,1.662-1.613,2.3168-.69.6528-1.534,1.1719-2.505,1.5435-.971.3694-2.06.5569-3.24.5569Z" fill="#4e4f53"/></g><g><path d="M162.064,57.9479c.461,0,.874-.0711,1.236-.2133.363-.1432.671-.3468.921-.6118.251-.266.443-.5902.576-.9726.131-.3824.197-.8175.197-1.3043v-8.186h3.44v8.186c0,.8476-.148,1.6253-.443,2.3329-.295.7088-.717,1.3184-1.267,1.8311-.549.5127-1.218.9101-2.005,1.1955-.787.2844-1.672.4266-2.655.4266-.99,0-1.879-.1422-2.665-.4266-.787-.2854-1.456-.6828-2.005-1.1955-.55-.5127-.971-1.1223-1.262-1.8311-.292-.7076-.438-1.4853-.438-2.3329v-8.186h3.44v8.1763c0,.4868.066.9219.198,1.3043s.324.7087.575.9769c.251.2693.558.474.921.6172.363.1422.775.2133,1.236.2133Z" fill="#4e4f53"/></g><g><path d="M155.931,46.8803v7.9651c0,.8175.142,1.5758.422,2.2533.277.6764.684,1.2656,1.208,1.7546.52.4868,1.167.8724,1.923,1.146s1.623.4115,2.58.4115c.95,0,1.814-.1379,2.57-.4115.755-.2736,1.402-.6592,1.922-1.146.524-.4879.933-1.0782,1.215-1.7546.283-.6797.426-1.4379.426-2.2533v-7.9651h-2.966v7.9651c0,.5084-.071.9694-.209,1.3722-.142.4093-.353.7626-.623,1.0502-.273.2887-.611.5138-1.006.6699-.781.306-1.878.306-2.657,0-.397-.1572-.737-.3845-1.008-.6764-.27-.2886-.479-.643-.622-1.0534-.139-.4028-.209-.8638-.209-1.3722v-7.9554h-2.966Zm6.133,13.9721c-1.014,0-1.941-.1487-2.751-.4416-.817-.2963-1.519-.7152-2.087-1.2451-.571-.5332-1.013-1.1752-1.315-1.9087-.301-.7281-.454-1.5402-.454-2.4116v-8.4067h3.914v8.397c0,.4621.062.8779.186,1.2365.122.3533.3.656.528.8994.224.2412.505.4298.835.559.663.2607,1.623.2607,2.289,0c.328-.1292.61-.3166.834-.5536.229-.2424.406-.5429.528-.8951.124-.3587.186-.7744.186-1.2365v-8.4067h3.914v8.4067c0,.8703-.155,1.6825-.459,2.4127-.306.7346-.751,1.3765-1.321,1.9076-.567.5299-1.27.9488-2.086,1.2451-.81.2929-1.734.4416-2.741.4416Z" fill="#4e4f53"/></g><g><path d="M177.997,53.4424c.896,0,1.541-.1992,1.933-.5978.394-.3985.591-.9553.591-1.6695c0-.3166-.051-.6042-.153-.8627-.101-.2596-.256-.4825-.463-.6689s-.468-.3306-.783-.4319c-.316-.1012-.69-.1519-1.125-.1519h-1.791v4.3827h1.791Zm0-6.7824c1.045,0,1.943.1153,2.691.3468.75.2305,1.367.5482,1.852.9532.486.4039.844.8822,1.074,1.4315.231.5504.346,1.1449.346,1.7836c0,.6894-.119,1.3216-.355,1.8968-.238.5762-.601,1.0685-1.09,1.4799-.488.4115-1.107.7324-1.857.9629s-1.636.3458-2.661.3458h-1.791v4.6196h-3.438v-13.8201h5.229Z" fill="#4e4f53"/></g><g><path d="M176.443,53.2212h1.554c.823,0,1.414-.1767,1.759-.5267.351-.3544.528-.8649.528-1.5198c0-.2886-.046-.5536-.138-.7873-.089-.2262-.225-.4233-.405-.586-.182-.1626-.416-.2919-.697-.3813-.289-.0937-.641-.14-1.047-.14h-1.554v3.9411Zm1.554.4416h-2.028v-4.8243h2.028c.459,0,.862.0549,1.202.1637.345.112.639.2736.87.4826.232.2089.408.462.521.7517.111.2812.167.5968.167.9382c0,.7691-.219,1.3808-.652,1.8192-.438.4438-1.148.6689-2.108.6689Zm-4.992,6.5961h2.964v-4.6196h2.028c.994,0,1.865-.1121,2.587-.334.715-.2207,1.312-.5288,1.773-.9176.458-.3867.804-.8552,1.027-1.3959.225-.5472.339-1.159.339-1.8171c0-.6085-.11-1.1815-.33-1.7029-.215-.5159-.556-.9694-1.01-1.3474-.46-.3835-1.055-.6894-1.769-.9091-.721-.2219-1.601-.3349-2.617-.3349h-4.992v13.3785Zm3.438.4416h-3.912v-14.2618h5.466c1.067,0,1.998.1207,2.765.3587.778.238,1.428.5741,1.937.9974.51.4255.892.936,1.135,1.5165.241.5731.363,1.1999.363,1.8634c0,.712-.125,1.3776-.372,1.9754-.249.6053-.638,1.132-1.152,1.565-.509.4298-1.162.769-1.941,1.0092-.771.2359-1.69.3565-2.735.3565h-1.554v4.6197Z" fill="#4e4f53"/></g></g></g><mask id="eO5ixnq63Vd56" mask-type="luminance" x="-150%" y="-150%" height="400%" width="400%"><g><path d="M0,0.000031h223L223,90L0,90L0,0.000031Z" fill="#fff"/></g></mask></g></g></g></g></svg>
